<svg xmlns="http://www.w3.org/2000/svg" xml:space="preserve" id="Layer_1" x="0" y="0" version="1.1" viewBox="0 0 581.27 188.19"><style>.st0,.st2{fill-rule:evenodd;clip-rule:evenodd;fill:#ce1326}.st2{fill:#fff}</style><path id="Fill-1" d="M477.07 146.59c-.05-.45-.08-.93-.08-1.46v-.11c0-.06.01-.1.01-.16-.02-2.67 1.11-6.64 1.43-7.52l.06-.17c1.05-2.89 1.48-4.09 2.9-6.18 2.38-3.5 3.45-4.62 6.01-6.34 2.28-1.53 5.36-1.86 5.6-1.89l.06-.01c.39-.06 1.09-.09 1.87-.09.92 0 1.75.06 2.13.13l.07.01c.27.01 2.67.25 4.84 2.35 2.29 2.22 3.58 5.21 3.83 8.91.13 1.88.01 3.45-.45 6.02-.82 4.56-2.48 7.66-3.71 9.46-1.93 2.8-3.56 4.71-6.15 6.17-1.27.72-3.64 2.05-7.57 2.05-1 0-2.05-.09-3.14-.26-1.25-.2-2.97-1.3-3.09-1.37-.11-.07-.74-.59-1.01-.85-2.02-2.01-3.17-4.77-3.61-8.69zm42.39-25.74c-6.85-6.76-17.08-7.77-22.58-7.77-2.93 0-4.86.28-5.08.31-13.27 1.97-23.04 6.96-29.05 14.83-6.13 8.03-5.95 16-5.75 18.25 1 11.21 7.66 17.88 19.79 19.82v.04c.15.03 3.75.68 8.98.68 6.24 0 11.92-.9 16.88-2.68 5.25-1.81 8.74-4.63 8.88-4.74v-.01c6.69-4.83 9.61-10.29 9.74-10.52 4.18-7.94 7.28-19.27-1.72-28.13l-.09-.08zm12.45-4.93c-.32.17-.97.4-1.59.52-.24.04-.46.07-.65.09-.63.03-1.14-.13-1.5-.45-.98-.9-.67-2.05-.34-2.59 3.42-5.05 2.63-12.64 1.62-16.34l-.03-.07.01-.03-.03-.39c-.21-.9-.31-1.77-.32-2.58-.02-4.01 2.44-5.55 2.72-5.72.07-.06.26-.16.67-.36l.01-.01.17-.07c.12-.04.51-.2.84-.32.2-.07.37-.11.46-.13.06-.01.16-.04.27-.07.05-.01.13-.03.28-.04 1.17-.21 3.01-.3 4.96.51.14.06.26.11.38.18.94.48 1.8 1.16 2.54 2.02.66.87 1.14 1.9 1.42 3.09.38 1.59.45 3.46.22 5.59 0 .01-.32 2.6-.92 4.33l-.59 1.78c-.52 1.34-.83 2.01-1.52 3.15-.06.13-.2.34-.41.64-.11.16-.22.33-.31.47-.59.86-.84 1.22-1.67 2.1-.15.17-.39.4-.64.65l-.28.27c-.48.47-1.09.97-1.82 1.51-1.73 1.27-3.1 1.93-3.95 2.26v.01zm49.36 33.41c.07 3.71-1.96 7.78-5.43 10.9-3.16 2.84-7.7 5.01-12.78 6.1-1.22.27-5.64 1.13-11.16 1.13-4.13 0-7.89-.48-11.19-1.43l.02.04-1.01-.31c-2.93-.93-5.29-2.19-7-3.73-.39-.33-.7-.64-.93-.91-.03-.04-.07-.09-.11-.14-2.33-2.77-2.67-6.15-.94-9.3 1.07-1.96 2.67-3.44 4.5-4.17 3.16-1.26 6.15-1.32 7.14-1.34h.21c.12-.01.24-.01.38-.01 1.3 0 3.77.35 4.76 1.67.38.5.51 1.1.38 1.74-.08.37-.35.91-1.19 1.34-2.3 1.2-3.9 2.24-4.22 3.4-.14.53-.02 1.13.39 1.82.81 1.37 3.57 2.17 7.57 2.21h.2c4.07 0 7.35-1.09 9-2.99.75-.86 1.1-1.84 1.01-2.82-.02-.29-.13-.64-.33-1.07-1.82-3.59-6.85-8.22-15.82-14.58-.31-.21-.59-.43-.87-.64-5.54-3.94-5.39-7.23-5.34-8.31l.01-.13c.01-.07.01-.11.02-.15-.02-1.4.4-2.28.42-2.32l.07-.14c2.19-7.3 10.57-9.45 15.41-10.08 1.78-.23 3.19-.29 3.91-.3l.27-.01c.8-.03 1.59-.04 2.38-.04 3.98 0 6.97.41 8.32.75.78.2 1.48.3 2.09.3 1.91 0 2.61-.98 3.23-1.84l.11-.15c.47-.68 1.53-1.5 2.88-1.37l.19.01c1.48.1 2.25.79 2.1 4.15-.1 2.34-.74 9.59-.88 11.02-.12 1.3-.45 2.15-.96 2.52-.29.21-.94.57-1.87.48-1.34-.13-2.42-1.99-2.62-2.43h-.01c-.72-1.94-3.63-4.2-9.43-4.2h-.35c-2.97.07-4 .58-4.35 1.01-.21.25-.2.5-.16.87l.01.07c.1.9 1.76 2.01 3.1 2.9.51.34.99.66 1.41.98 2.91 2.18 5.2 3.83 7.04 5.15 2.04 1.46 3.52 2.53 4.75 3.53 1.95 1.6 5.54 4.53 5.67 10.82zm-180.12-7.67c.06-1.39.26-2.66.58-3.88l.04-.16c.42-1.52 1.06-2.92 1.95-4.32 5.66-9.67 16.41-10.26 16.55-10.26.93-.1 1.81-.16 2.62-.16 5.31 0 6.72 2.28 7.08 3.32.02.28.03.54.04.77.03 1.02-1.08 10.83-1.85 15.01-.31 1.66-1.03 4.83-2.42 7.47-.52.95-1.09 1.74-1.69 2.35-3.44 3.52-5.92 4.82-10.19 5.37-.49.06-1.03.13-1.65.13-2.12 0-4.13-.77-6.15-2.35-2.59-2.01-5.23-6.56-4.91-13.29zm50.4 10.66c-.35-.1-.69-.14-1.04-.14h-.11c-1.14 0-1.99.53-2.74 1-.68.42-1.27.79-2.02.79a.46.46 0 0 1-.35-.2c-.88-1.09-.23-5.18.02-6.72l.06-.42c.37-2.28.76-4.99 1.25-8.49.29-1.79.57-3.57.83-5.23.67-4.33 2.31-13.08 3.31-17.67 2.7-12.43 5.79-20.63 7.28-24.58.71-1.89.94-2.5.93-2.86-.02-.62-.07-2.52-1.67-3.38-.28-.15-.61-.23-.99-.23-1.84 0-4.63 1.85-6.14 2.94-11.87 8.7-16.64 23.88-18.33 29.56-.16-.07-.34-.17-.52-.26-.2-.1-.41-.21-.62-.31-4.77-2.15-11.15-2.55-11.41-2.57-.04 0-.92-.09-2.4-.09h-.17c-1.17 0-2.38.04-3.6.14-6.16.41-10.4 1.83-11.55 2.26-1.29.48-2.95 1.12-4.26 1.78-7.13 3.41-12.29 8.71-15.38 15.77-.65 1.71-6.01 16.96 6.02 26.76.22.18.44.36.66.53l.28.2c.37.27.73.53 1.1.77l.36.23c.16.1.31.19.46.28 1.44.89 2.92 1.63 4.52 2.3l.1.04c1.28.53 3.25 1.1 5.55 1.6 1.55.34 4.91.61 6.27.61h.38c7.8-.25 12.86-2.12 15.89-3.82v.03l.8-.5c1.8-1.13 2.95-2.23 3.61-2.99.14.3.25.5.33.64h-.01c1.02 1.78 4.54 5.18 10.6 5.31.89.03 1.84-.03 2.78-.14 3.48-.44 9.6-2.11 11.49-8.33.25-.82.57-2.36-.05-3.48-.32-.57-.83-.95-1.52-1.13zm-226.5-51.19-10.51 60.74c-.06.41-.4 2.31-.4 2.33-.31 1.57-1.96 2.63-3.31 2.63h-.13c-3.32 0-7.11-4.97-7.27-5.18l-.39-.56c-4.12-5.29-27.02-40.65-31.42-47.45l-6.39 37.3c-.02.09-1.22 5.65 1.9 7.01 4.86 2.11 4.82 3.86 4.4 5.33-.19.68-.66 1.63-2.42 1.9-.12.03-.29.06-.44.06-.05.01-.08.01-.12.01l-.13-.01c-.42 0-.89-.06-1.38-.13-.42-.06-.86-.11-1.32-.14l-.36-.03c-1.18-.09-4.75-.36-9.97-.36-3.55 0-7.22.3-9.64.5-1.12.1-2.01.17-2.6.19l-.08.03s-.22.03-.56.03c-.64 0-1.84-.13-2.65-1.02-.62-.68-.88-1.65-.76-2.88.17-1.76 2.38-2.3 4.51-2.82l.2-.04c4.45-1.09 5.97-6.3 6.42-8.49.01-.06.02-.1.03-.14.87-5.05 2.88-17.45 4.65-28.39 1.65-10.19 3.08-18.99 3.44-20.98.61-3.42-.42-5.91-3.15-7.62l-.1-.04c-1.29-.6-1.88-.88-3.09-1.68-.8-.52-1.65-1.83-1.6-2.86.06-1.1.84-2.04 1.88-2.32v-.01l.16-.03c.05-.01.09-.01.14-.03l.06-.01c.04-.01.91-.15 2.36-.29h.08v-.01h.07a59.408 59.408 0 0 1 7.58-.24c.53 0 1.05.01 1.5.03h.22c.58 0 1.51.03 2.71.2.54.06.79.11.79.11 8.55 1.37 16.31 8.59 25.17 23.39 3.24 5.41 7.25 11.87 10.47 17.06 1.15 1.85 2.17 3.5 2.99 4.83l5.11-30.4c.01-.06.88-6.37-3.47-8.15-2.5-1.02-3.92-2.67-3.71-4.33.23-1.91 1.71-2.93 3.87-2.62l.13.03c.26.03.52.06.8.1.42.06.86.11 1.32.14l.35.03c1.18.09 4.74.37 9.99.37 3.55 0 7.22-.31 9.65-.51 1.37-.11 2.36-.2 2.91-.2.2 0 .34.01.46.04h.01c.98 0 1.83.59 2.17 1.48l.04.01.09.28c.46 2.54-1.32 4.35-5.31 5.37-5 1.27-5.85 8.07-5.86 8.14l-.03.27-.06.03zm149.6 36.17v.32c.05 1.56-.55 8.5-4.33 14.02-4.27 6.25-9.86 10.05-13.8 12.15-.41.21-.81.43-1.21.65-2.47 1.34-5.03 2.74-8.14 3.31-.19.03-.41.04-.55.04-.18 0-.77-.01-1.16-.17l-.09-.03c-.59-.24-1.4-.56-1.44-1.79-.01-.28.12-.68.78-1.85 1.85-2.48 7.9-11.42 9.47-24.37.88-7.21.1-12.22-2.34-14.87-1.56-1.71-3.85-2.53-6.98-2.53-.41 0-.83.01-1.26.04-8.31.52-12.19 8.37-13.08 12.45-.85 4.77-2.02 11.56-2.83 16.5-.16 1.57-.26 5.38 2.42 6.32 2.57.91 3.82 2.54 3.44 4.45-.29 1.48-1.33 2.36-2.85 2.41-2.12.07-4.2-.03-6.18-.14-1.21-.06-2.35-.13-3.46-.14-2.13-.03-4.31-.06-6.47-.06-1.03 0-1.99.01-2.85.01-.31.01-.62.01-.89.01-.51 0-.9.01-1.27.01-.39.01-.77.01-1.3.01-.24 0-.58.01-1 .03-.96.04-2.28.1-3.56.03-1.47-.04-2.12-.2-2.56-.6-.75-.57-.8-1.61-.79-2.03.03-1.06.39-2 1.06-2.72.73-.8 1.65-1.04 2.53-1.27 1.63-.42 3.32-.87 4.37-5.1.64-3.78 1.49-9.15 2.31-14.35.79-4.97 1.53-9.66 1.98-12.27 0-.11.02-.25.05-.4.03-.17.07-.45.01-.51-.05-.06-.37-.16-1-.1-.37.01-5.18.26-6.1-2.38-1.15-3.3 1.16-4.11 2.27-4.51l.28-.1c1.18-.45 13.28-3.91 15.67-4.11.29-.03.58-.07.87-.1.45-.06.92-.13 1.36-.13.71 0 1.26.17 1.68.52 1.82 1.49 1.74 3.74 1.67 5.56 3.13-2.94 8.09-6.17 15.07-6.73v.01c.47-.11 1.43-.18 3.37-.18.18 0 .35 0 .5.01 2.35.07 4.52.38 5.14.46 7 .97 11.95 3.63 16.05 8.64 2.41 2.94 5.25 8.02 5.14 15.53v.05zm-100.56-10.41c.02 1-1.07 10.65-1.83 14.76-.39 2.08-1.56 7.2-4.16 9.86-3.4 3.48-5.84 4.77-10.06 5.32-.49.06-1.02.13-1.63.13-2.08 0-4.07-.76-6.06-2.32-2.55-2-5.16-6.51-4.84-13.17.07-1.37.25-2.63.57-3.84l.04-.16c.41-1.5 1.04-2.89 1.93-4.28 5.58-9.58 16.19-10.16 16.33-10.17.91-.1 1.78-.16 2.58-.16 6.94.03 7.12 3.88 7.13 4.03zm21.16 25.14c-.35-.1-.7-.14-1.03-.14-1.12 0-1.97.53-2.71.99-.67.42-1.25.79-1.97.79h-.12a.461.461 0 0 1-.35-.19c-.87-1.07-.23-5.14.01-6.67l.06-.42c.63-3.93 1.26-8.57 1.8-12.5l.02.03.29-2.15c.32-2.33.92-6.68.94-7.71.05-3.35-.74-4.1-1.67-4.98l-.25-.24c-1.43-1.41-3.37-3.11-6.85-5.14-.87-.51-2.23-1.28-3.39-1.13-.94.13-1.89 1.08-2.42 1.97-.2.33-.49 1.07-.84 1.93l-.07.18c-.09.09-.17.15-.27.22-.22.15-.68-.11-1.16-.36-.2-.11-.41-.22-.63-.32-4.71-2.13-11.01-2.53-11.26-2.55-.03 0-.9-.07-2.37-.07-1.17 0-2.39.04-3.61.14-6.08.41-10.27 1.82-11.4 2.24-1.27.47-2.91 1.1-4.21 1.76-7.03 3.37-12.14 8.62-15.18 15.62-.64 1.69-5.94 16.79 5.94 26.51.22.18.43.36.65.53l.27.2c.36.27.72.52 1.08.75l.36.24c.16.1.31.19.45.27 1.43.88 2.89 1.62 4.47 2.27l.91.32-.02-.09c1.99.73 3.51 1.1 4.37 1.31l.29.07c1.64.44 5.05.61 6.2.61h.27c7.69-.24 12.69-2.1 15.68-3.78v.01l.8-.49c1.81-1.14 2.95-2.25 3.59-3l.07.17.04-.06c.12.26.21.43.29.56h-.01c1.04 1.82 4.63 5.26 10.81 5.26.74 0 1.51-.06 2.29-.15 3.43-.44 9.47-2.09 11.34-8.25.25-.81.57-2.34-.05-3.45-.27-.54-.77-.92-1.45-1.11z" class="st0"/><path id="Fill-4" fill="#020203" fill-rule="evenodd" d="M105.21 49.78c-1.43 2.18-3.86 4.4-5.55 5.82-.06-4.57-.88-7.97-2.08-10.51 4.37 1.62 7.63 4.69 7.63 4.69m-7.32 43.87c.22-4.42.75-14.8 1.28-23.09.96 1.23 2.44 2.38 4.5 1.92 1.02-.23 3.36-.86 3.57-4.24.11-1.98-1.35-4.48-5.33-8.68-.23-.24-.55-.51-.92-.78 2.28-2.12 5.89-5.74 7.65-8.93l.44-.8-.69-.6c-3.64-3.14-8.79-5.99-11.16-7.23-1.13-.64-2.11-1.14-2.94-1.54.15-.11.3-.23.44-.36 2.2-2.22 11.34-12.59 5.57-26.57C94.61-1.02 80.22-.94 72.6.82c-2.78.74-5.37 2.14-6.56 2.84-4.95 3.27-8.8 8.27-9.98 14.19-1.29 6.45.72 13.61 5.56 18.16.96.9 1.33 1.15 1.51 1.03-.11.09.19-1.19 2.28-3.08.63-.57 4.31-3.79 9.42-2.08 2.87.97 4.19 2.47 5.13 4.52.46 1 .7 2.27.67 3.42-.09.04-.17.09-.25.14-3.81 2.3-7.8 7.69-6.86 20.28 1.1 14.62 2.19 26.6 2.84 33.39-2.27.07-4.35.27-6.26.6 3.1-13.23 2.42-28.6-12.21-37.71-13.92-8.68-33.52-5.9-45.85 4.53-12.37 10.46-15.2 28.53-8.5 42.99.59 1.28 1.25 2.53 1.97 3.75 2.13 3.6 4.85 6.83 8.2 9.36 3.4 2.57 7.32 4.34 11.37 5.61 2.52.79 5.1 1.39 7.68 1.9.33.06.57-.29.41-.58-.17-.3-.31-.59-.38-.7a13.16 13.16 0 0 1-1.51-4.22c-.94-5.29.77-11.47 5.17-14.8 4.15-3.14 10.08-3.15 14.26-.04.71.53 1.36 1.15 1.93 1.85-2.47 5.31-2.39 11.14-1.69 14.93.48 2.62 1.01 3.54 1.34 4.56 2.26 6.95 8.34 14.28 10.46 16.99 3.19 4.06 12.3 13.57 15.65 17.04v14.15c-1.17.71-9.03 5.66-12.37 12.89-.35.76.32 1.59 1.18 1.46 5.92-.89 13.4-1.4 20.58-1.41 7.21.01 13.98.52 19.86 1.41.86.13 1.53-.7 1.18-1.46-3.35-7.25-11.23-12.21-12.37-12.9v-14.08c3.08-3.41 11.63-12.98 14.63-17.1 2.02-2.78 10.18-13.24 11.69-21.54 1.49-8.35.07-26.47-24.89-27.46" clip-rule="evenodd"/><path d="m84.47 37.72.01.17c.01.2.03.36.04.49l.01.1.03.03c2.14-.4 4.28-.35 5.99-.06v-.01c3.72-2.97 6.39-7.59 7.34-12.91 1.06-5.94-.3-11.55-3.73-15.39-3.64-4.08-8.4-6.15-14.14-6.15-.28 0-.54.01-.78.01-5.53.13-8.95 1.36-13.05 4.71-1.61 1.31-5.41 5.01-5.94 10.86-.29 3.21.09 5.54.45 6.94.07.25.13.48.18.7.32 1.3.54 2.17 1.88 4.1.01-.01.04-.03.06-.04 1.62-1.56 3.49-2.63 5.55-3.18 1.48-.4 3.02-.59 4.6-.55.68.01 4.71.54 7.52 2.79 3.73 2.96 3.9 5.84 3.98 7.39M96.59 109.38c-6.58-.6-9.31 5.27-9.4 5.46-.09-.19-2.81-6.06-9.4-5.46-6.7.6-11.19 8.78-2.11 21.47 8.78 12.27 11.34 12.84 11.5 12.87h.01c.16-.03 2.73-.6 11.51-12.87 9.08-12.69 4.58-20.87-2.11-21.47M60.03 63.36c-4.14-3.9-9.66-6.34-15.08-7.24-14.78-2.48-31 4-37.65 17.77-5.64 11.68-3.22 27.81 5.91 37.09 4.18 4.26 8.49 6.67 13.91 7.84.14.03-.74-3.64.18-7.59 1.04-4.46 3.2-9.75 9.48-12.21 9.59-3.76 15.11.87 18.4 3.18 2.09-2.34 3.6-3.27 5.82-4.44 1.73-.91 2.84-1.29 4.48-1.66 1.89-4.24 2.73-12.38 1.89-16.86-1.06-5.68-1.84-10.7-7.34-15.88M104.03 66.94c.45.89.16 1.95-.66 2.37-.72.38-1.62.13-2.13-.55h-.01s-.03-.04-.07-.1a1.6 1.6 0 0 1-.11-.19c-.03-.06-.06-.13-.09-.19-.16-.34-.37-.87-.56-1.61-.29-1.08-.74-3.34-.96-4.47-.09-.41-.11-.51-.06-.54.07-.03.11.04.4.35.84.85 2.53 2.59 3.12 3.33.5.64.8 1.09.98 1.39.04.07.09.13.13.21" class="st0"/><path id="Fill-8" d="M97.58 45.1c1.2 2.53 2.02 5.94 2.08 10.51 1.69-1.41 4.12-3.64 5.55-5.82-.01-.01-3.26-3.08-7.63-4.69m-7.49 5.23c0-1.4-1.14-2.54-2.54-2.54-1.4 0-2.54 1.14-2.54 2.54 0 1.4 1.14 2.54 2.54 2.54 1.41 0 2.54-1.14 2.54-2.54m3.08 0a5.62 5.62 0 0 1-5.62 5.63c-3.1 0-5.62-2.52-5.62-5.63s2.52-5.63 5.62-5.63a5.62 5.62 0 0 1 5.62 5.63m-7.01 11.99c.5-1.06 1.71-1.53 2.69-1.06.87.41 1.27 1.43 1 2.39h.01s-.01.04-.06.13c-.03.09-.06.16-.09.24-.04.07-.07.15-.11.21-.2.39-.54.96-1.1 1.67-.81 1.03-2.6 3.05-3.5 4.06-.33.37-.4.47-.46.43-.09-.04-.04-.14.03-.63.2-1.38.6-4.21.88-5.28.24-.93.44-1.52.59-1.9.04-.08.07-.17.12-.26" class="st2"/><path id="Fill-10" d="M48.62 62.23c-1.53 0-2.78 1.25-2.78 2.78 0 1.53 1.25 2.78 2.78 2.78 1.54 0 2.79-1.25 2.79-2.78a2.802 2.802 0 0 0-2.79-2.78" class="st2"/><path id="Fill-12" d="M56.47 74.77c1.54 0 2.79-1.25 2.79-2.78 0-1.54-1.25-2.79-2.79-2.79-1.53 0-2.78 1.25-2.78 2.79a2.78 2.78 0 0 0 2.78 2.78" class="st2"/><path id="Fill-14" d="M59.22 79.06c-1.53 0-2.78 1.25-2.78 2.78 0 1.54 1.25 2.79 2.78 2.79 1.53 0 2.79-1.25 2.79-2.79 0-1.53-1.25-2.78-2.79-2.78" class="st2"/><path id="Fill-16" d="M19.58 104.84c-1.53 0-2.78 1.25-2.78 2.79s1.25 2.79 2.78 2.79c1.54 0 2.79-1.25 2.79-2.79a2.798 2.798 0 0 0-2.79-2.79" class="st2"/><path id="Fill-18" d="M13.61 96.69c-1.53 0-2.78 1.25-2.78 2.78 0 1.54 1.25 2.79 2.78 2.79 1.54 0 2.79-1.25 2.79-2.79a2.802 2.802 0 0 0-2.79-2.78" class="st2"/><path id="Fill-20" d="M14.05 89.69a2.789 2.789 0 0 0-5.58 0c0 1.53 1.25 2.79 2.79 2.79 1.54-.01 2.79-1.26 2.79-2.79" class="st2"/><path id="Fill-22" d="M12.6 82.37c1.54 0 2.79-1.25 2.79-2.78 0-1.54-1.25-2.79-2.79-2.79-1.53 0-2.79 1.25-2.79 2.79 0 1.53 1.25 2.78 2.79 2.78" class="st2"/><path id="Fill-24" d="M17.97 73.58c1.53 0 2.79-1.25 2.79-2.79a2.789 2.789 0 0 0-5.58 0 2.798 2.798 0 0 0 2.79 2.79" class="st2"/><path id="Fill-26" d="M27.07 62.11c-1.54 0-2.79 1.25-2.79 2.79 0 1.53 1.25 2.79 2.79 2.79 1.53 0 2.78-1.25 2.78-2.79s-1.25-2.79-2.78-2.79" class="st2"/><path id="Fill-28" d="M37.92 60.01a2.789 2.789 0 0 0 0 5.58 2.791 2.791 0 0 0 0-5.58" class="st2"/><path id="Fill-30" d="M57.25 88.91c-1.53 0-2.78 1.25-2.78 2.78 0 1.54 1.25 2.79 2.78 2.79 1.54 0 2.79-1.25 2.79-2.79 0-1.53-1.25-2.78-2.79-2.78" class="st2"/></svg>