<?xml version="1.0" encoding="UTF-8"?>
<!DOCTYPE svg PUBLIC "-//W3C//DTD SVG 1.1//EN" "http://www.w3.org/Graphics/SVG/1.1/DTD/svg11.dtd">
<svg xmlns="http://www.w3.org/2000/svg" version="1.1" width="3840px" height="2160px" style="shape-rendering:geometricPrecision; text-rendering:geometricPrecision; image-rendering:optimizeQuality; fill-rule:evenodd; clip-rule:evenodd" xmlns:xlink="http://www.w3.org/1999/xlink">
<g><path style="opacity:1" fill="#6db244" d="M 3104.5,316.5 C 3157.91,316.137 3211.24,319.304 3264.5,326C 3294.54,331.784 3324.54,337.784 3354.5,344C 3375.04,350.303 3395.71,356.303 3416.5,362C 3434.58,369.251 3452.92,375.918 3471.5,382C 3492.47,391.773 3513.47,401.607 3534.5,411.5C 3535.39,412.325 3535.72,413.325 3535.5,414.5C 3538.42,414.46 3541.09,415.293 3543.5,417C 3551.9,421.953 3560.4,426.786 3569,431.5C 3576.7,436.613 3584.2,442.113 3591.5,448C 3593.39,448.973 3595.39,449.64 3597.5,450C 3602.81,454.638 3608.14,459.304 3613.5,464C 3615.89,465.861 3618.55,467.194 3621.5,468C 3638.32,482.15 3654.48,496.984 3670,512.5C 3671.67,514.833 3673.33,517.167 3675,519.5C 3684.23,527.378 3691.9,536.378 3698,546.5C 3704.69,551.981 3709.69,558.647 3713,566.5C 3734.21,596.441 3749.88,629.107 3760,664.5C 3769.75,697.194 3773.09,730.528 3770,764.5C 3768.31,771.129 3766.81,777.795 3765.5,784.5C 3760.37,796.768 3754.2,808.435 3747,819.5C 3745.83,820.893 3744.33,821.727 3742.5,822C 3737.45,828.047 3732.12,833.714 3726.5,839C 3725.17,839.333 3723.83,839.667 3722.5,840C 3716.43,844.395 3710.1,848.395 3703.5,852C 3682.52,861.111 3660.52,865.611 3637.5,865.5C 3292.5,865.014 2947.5,864.847 2602.5,865C 2581.37,863.718 2561.37,858.385 2542.5,849C 2536.63,845.234 2530.63,841.734 2524.5,838.5C 2523.42,835.912 2521.75,833.745 2519.5,832C 2514.39,828.887 2509.89,825.054 2506,820.5C 2499.6,810.426 2493.6,800.092 2488,789.5C 2480.5,762.945 2478.5,735.945 2482,708.5C 2483.89,696.812 2485.89,685.145 2488,673.5C 2494.15,656.589 2500.15,639.589 2506,622.5C 2513.67,607.833 2521.33,593.167 2529,578.5C 2532.33,574.5 2535.67,570.5 2539,566.5C 2548.71,549.45 2560.71,534.116 2575,520.5C 2580.09,514.079 2585.92,508.246 2592.5,503C 2594.53,499.541 2597.19,496.874 2600.5,495C 2610.71,486.287 2620.71,477.454 2630.5,468.5C 2635.04,465.468 2639.7,462.635 2644.5,460C 2649.89,453.467 2656.55,448.633 2664.5,445.5C 2670.64,441.192 2676.64,436.692 2682.5,432C 2703.14,420.677 2723.81,409.344 2744.5,398C 2747.17,397.333 2749.83,396.667 2752.5,396C 2759.75,391.209 2767.41,387.209 2775.5,384C 2788.17,380.054 2800.5,375.22 2812.5,369.5C 2907.29,337.592 3004.62,319.925 3104.5,316.5 Z M 3096.5,393.5 C 3198.1,389.595 3297.27,402.928 3394,433.5C 3409.86,440.34 3426.02,446.507 3442.5,452C 3455.15,458.827 3468.15,464.827 3481.5,470C 3492.26,477.046 3503.59,483.046 3515.5,488C 3520.54,491.513 3525.54,495.013 3530.5,498.5C 3535.67,501.588 3541.01,504.421 3546.5,507C 3557.18,514.751 3567.85,522.418 3578.5,530C 3587.98,539.147 3597.82,547.98 3608,556.5C 3612.29,563.125 3617.62,568.791 3624,573.5C 3628.6,581.098 3634.27,587.765 3641,593.5C 3650.74,607.569 3660.07,621.903 3669,636.5C 3680.88,658.795 3689.21,682.461 3694,707.5C 3694.86,718.998 3695.69,730.498 3696.5,742C 3696.81,762.982 3687.48,777.648 3668.5,786C 3661.19,787.164 3653.86,788.164 3646.5,789C 3297.12,789.729 2951.12,790.062 2608.5,790C 2573.26,790.426 2555.59,773.093 2555.5,738C 2557.4,721.074 2559.9,704.24 2563,687.5C 2567.03,674.696 2571.36,662.03 2576,649.5C 2583.28,637.274 2590.28,624.941 2597,612.5C 2638.94,555.869 2691.1,511.703 2753.5,480C 2759.5,474.995 2766.17,470.995 2773.5,468C 2856.95,429.882 2944.61,406.216 3036.5,397C 3056.67,396.072 3076.67,394.905 3096.5,393.5 Z"/></g>
<g><path style="opacity:1" fill="#090c0a" d="M 249.5,494.5 C 262.72,494.181 275.887,494.848 289,496.5C 299.448,499.205 309.948,501.705 320.5,504C 347.867,514.702 370.7,531.535 389,554.5C 395.494,560.955 400.661,568.455 404.5,577C 403.131,582.385 400.131,586.718 395.5,590C 387.306,593.592 379.973,598.426 373.5,604.5C 365.364,607.733 358.031,612.233 351.5,618C 348.95,619.442 346.284,620.608 343.5,621.5C 342.069,621.023 340.736,620.357 339.5,619.5C 332.002,611.078 325.002,602.245 318.5,593C 312.176,588.993 306.176,584.66 300.5,580C 274.283,568.463 247.616,567.463 220.5,577C 213.994,582.335 207.327,587.502 200.5,592.5C 183.829,619.564 183.329,646.897 199,674.5C 206.878,680.721 214.378,687.221 221.5,694C 233.091,699.936 244.424,706.269 255.5,713C 266.384,716.774 277.05,721.108 287.5,726C 304.386,734.026 321.219,742.193 338,750.5C 349.815,757.639 361.649,764.805 373.5,772C 374.376,773.586 375.376,775.086 376.5,776.5C 381.833,780.833 387.167,785.167 392.5,789.5C 398.176,796.34 404.009,803.007 410,809.5C 415.366,817.551 420.366,825.884 425,834.5C 428.464,845.226 432.131,855.892 436,866.5C 440.749,888.697 440.582,910.864 435.5,933C 431.922,944.815 428.422,956.648 425,968.5C 416.593,985.574 405.76,1000.91 392.5,1014.5C 387.162,1017.17 382.162,1020.33 377.5,1024C 373.184,1028.24 368.184,1031.57 362.5,1034C 345.044,1041.6 327.044,1047.6 308.5,1052C 273.174,1057.26 238.007,1056.43 203,1049.5C 184.592,1043.98 166.759,1036.98 149.5,1028.5C 144.117,1022.96 137.783,1018.79 130.5,1016C 123.429,1009.31 116.262,1002.81 109,996.5C 104.315,989.822 98.982,983.822 93,978.5C 87.2481,968.287 81.0814,958.287 74.5,948.5C 72.6943,943.55 74.0276,939.716 78.5,937C 86.7655,932.052 95.4322,928.052 104.5,925C 107.044,923.245 109.377,921.245 111.5,919C 118.401,915.768 125.067,912.101 131.5,908C 137.546,905.166 142.546,906.332 146.5,911.5C 163.329,938.813 186.663,958.98 216.5,972C 256.4,985.469 294.066,981.136 329.5,959C 332.667,955.833 335.833,952.667 339,949.5C 343.328,942.179 347.661,934.846 352,927.5C 361.048,896.177 353.548,869.677 329.5,848C 319.937,842.121 310.604,835.788 301.5,829C 293.11,823.888 284.277,819.722 275,816.5C 262.506,809.328 249.339,803.495 235.5,799C 223.559,792.196 211.226,786.196 198.5,781C 187.751,773.244 176.751,765.911 165.5,759C 160.683,754.76 155.683,750.76 150.5,747C 146.358,743.038 142.692,738.704 139.5,734C 138.234,733.691 137.067,733.191 136,732.5C 128.602,721.581 121.769,710.247 115.5,698.5C 112.723,692.729 110.556,686.729 109,680.5C 102.219,645.987 104.219,611.987 115,578.5C 119.584,570.333 123.917,562 128,553.5C 145.252,528.932 168.419,512.432 197.5,504C 214.938,500.485 232.271,497.319 249.5,494.5 Z"/></g>
<g><path style="opacity:1" fill="#090c0a" d="M 1169.5,494.5 C 1171.94,494.317 1174.1,494.984 1176,496.5C 1178.58,500.665 1180.92,504.998 1183,509.5C 1188.95,527.076 1196.29,544.076 1205,560.5C 1209.17,574.527 1214.83,587.861 1222,600.5C 1240.01,646.167 1259.01,691.5 1279,736.5C 1283.68,748.198 1288.68,759.864 1294,771.5C 1297.67,783.824 1302.67,795.49 1309,806.5C 1313.3,817.053 1317.3,827.72 1321,838.5C 1329.04,853.582 1335.71,869.249 1341,885.5C 1347.5,897.647 1352.83,910.314 1357,923.5C 1371.35,956.568 1385.68,989.568 1400,1022.5C 1402.62,1029.23 1404.79,1036.06 1406.5,1043C 1405.71,1044.09 1405.04,1045.25 1404.5,1046.5C 1402.03,1047.04 1399.86,1048.04 1398,1049.5C 1390.4,1048.18 1382.57,1047.52 1374.5,1047.5C 1363.31,1047.81 1352.14,1048.47 1341,1049.5C 1334.37,1049.79 1328.2,1048.29 1322.5,1045C 1319.73,1042.62 1317.56,1039.78 1316,1036.5C 1314.33,1030.5 1312.67,1024.5 1311,1018.5C 1305.55,1006.14 1300.88,993.478 1297,980.5C 1291.89,973.028 1284.72,969.361 1275.5,969.5C 1270.52,970.165 1265.52,970.665 1260.5,971C 1192.17,971.333 1123.83,971.667 1055.5,972C 1050.82,973.35 1047.32,976.183 1045,980.5C 1040.65,992.84 1036.32,1005.17 1032,1017.5C 1027.89,1027.17 1023.39,1036.67 1018.5,1046C 1017,1046.58 1015.67,1047.42 1014.5,1048.5C 990.5,1049.83 966.5,1049.83 942.5,1048.5C 941.855,1047.35 941.022,1046.35 940,1045.5C 940.197,1041.04 941.197,1036.71 943,1032.5C 951.048,1016.74 957.715,1000.4 963,983.5C 971.883,966.86 979.216,949.527 985,931.5C 985.667,930.167 986.667,929.167 988,928.5C 994.433,908.539 1002.43,889.206 1012,870.5C 1031.19,823.285 1050.19,775.951 1069,728.5C 1076.41,713.678 1082.74,698.345 1088,682.5C 1096.64,666.548 1103.64,649.882 1109,632.5C 1114.84,621.643 1119.51,610.309 1123,598.5C 1137.27,564.615 1151.6,530.615 1166,496.5C 1167.3,495.915 1168.47,495.249 1169.5,494.5 Z M 1169.5,653.5 C 1172.11,658.765 1173.61,664.431 1174,670.5C 1182.18,690.38 1189.18,710.713 1195,731.5C 1202.21,746.313 1208.21,761.647 1213,777.5C 1219.54,790.325 1224.88,803.659 1229,817.5C 1232.23,823.951 1234.89,830.618 1237,837.5C 1244.56,855.636 1251.89,873.97 1259,892.5C 1260.03,895.217 1259.2,897.051 1256.5,898C 1199.17,898.667 1141.83,898.667 1084.5,898C 1083.58,897.626 1082.75,897.126 1082,896.5C 1082.46,889.746 1083.8,883.079 1086,876.5C 1095.72,856.066 1104.05,835.066 1111,813.5C 1113.53,808.906 1115.86,804.239 1118,799.5C 1122.97,782.567 1129.31,766.233 1137,750.5C 1142.85,731.296 1149.68,712.463 1157.5,694C 1162.01,680.631 1166.01,667.131 1169.5,653.5 Z"/></g>
<g><path style="opacity:1" fill="#090c0a" d="M 1445.5,501.5 C 1465.95,502.737 1486.11,502.737 1506,501.5C 1510.31,501.619 1514.47,502.452 1518.5,504C 1519.13,504.75 1519.63,505.584 1520,506.5C 1520.49,590.54 1520.66,674.373 1520.5,758C 1519.22,769.42 1518.72,780.92 1519,792.5C 1524.06,785.047 1528.06,777.047 1531,768.5C 1540.51,754.81 1549.51,740.81 1558,726.5C 1561.5,723.999 1563.83,720.665 1565,716.5C 1566.89,715.07 1568.55,713.403 1570,711.5C 1572.21,706.782 1575.05,702.449 1578.5,698.5C 1582.83,694.641 1586.33,689.974 1589,684.5C 1596.09,675.316 1603.43,666.316 1611,657.5C 1617.87,646.407 1625.71,636.073 1634.5,626.5C 1637.31,619.206 1641.81,613.206 1648,608.5C 1652.45,599.538 1658.29,591.538 1665.5,584.5C 1671.56,576.062 1677.39,567.395 1683,558.5C 1688.95,552.626 1693.95,545.959 1698,538.5C 1707.21,527.623 1716.04,516.456 1724.5,505C 1729.23,503.461 1734.06,502.294 1739,501.5C 1766.75,502.747 1793.75,502.747 1820,501.5C 1820.75,502.126 1821.58,502.626 1822.5,503C 1819.35,505.989 1816.35,509.156 1813.5,512.5C 1802.9,528.916 1791.4,544.583 1779,559.5C 1776.5,565.991 1772.5,571.324 1767,575.5C 1763.81,579.873 1761.15,584.54 1759,589.5C 1749.03,600.759 1740.03,612.759 1732,625.5C 1727.48,628.854 1724.15,633.187 1722,638.5C 1710.18,653.464 1698.85,668.797 1688,684.5C 1687,685.167 1686,685.833 1685,686.5C 1681.77,692.401 1677.77,697.735 1673,702.5C 1670.48,709.013 1666.48,714.347 1661,718.5C 1654.48,730.158 1646.48,740.825 1637,750.5C 1634.81,755.67 1635.14,760.67 1638,765.5C 1647.1,775.613 1655.1,786.613 1662,798.5C 1668.8,804.767 1674.13,812.1 1678,820.5C 1681.67,824.5 1685.33,828.5 1689,832.5C 1689.56,834.615 1690.39,836.615 1691.5,838.5C 1703.64,853.471 1714.8,869.138 1725,885.5C 1732.54,892.213 1738.37,900.213 1742.5,909.5C 1751.63,920.131 1759.8,931.464 1767,943.5C 1772.86,948.026 1777.2,953.693 1780,960.5C 1790.58,973.984 1800.91,987.65 1811,1001.5C 1815.43,1009.3 1820.76,1016.63 1827,1023.5C 1828.85,1026.71 1830.52,1030.04 1832,1033.5C 1837.56,1037.63 1841.39,1042.96 1843.5,1049.5C 1810.83,1049.83 1778.16,1049.5 1745.5,1048.5C 1744.62,1047.75 1743.62,1047.25 1742.5,1047C 1737.43,1040.99 1732.26,1035.16 1727,1029.5C 1724.93,1026.41 1723.26,1023.08 1722,1019.5C 1706.58,999.759 1691.58,979.759 1677,959.5C 1674.24,955.739 1671.9,951.739 1670,947.5C 1660.86,937.358 1652.86,926.358 1646,914.5C 1639.28,908.728 1634.28,901.728 1631,893.5C 1624.55,888.491 1619.72,882.157 1616.5,874.5C 1604.7,858.518 1593.03,842.351 1581.5,826C 1578.06,824.113 1574.89,824.613 1572,827.5C 1566.14,837.365 1558.81,846.032 1550,853.5C 1544.75,861.584 1538.58,868.917 1531.5,875.5C 1528.97,882.242 1526.13,888.909 1523,895.5C 1520.73,905.199 1519.56,915.033 1519.5,925C 1521.78,964.872 1521.94,1004.71 1520,1044.5C 1518.33,1046.63 1516.17,1047.96 1513.5,1048.5C 1509,1048.83 1504.5,1049.17 1500,1049.5C 1495.08,1049.47 1490.41,1048.8 1486,1047.5C 1485.33,1050.17 1484.67,1050.17 1484,1047.5C 1483.67,1048.17 1483.33,1048.83 1483,1049.5C 1478.92,1048.2 1474.59,1047.54 1470,1047.5C 1463.79,1047.82 1457.63,1048.49 1451.5,1049.5C 1441.87,1049.7 1437.04,1045.04 1437,1035.5C 1436.33,861.5 1436.33,687.5 1437,513.5C 1436.72,507.004 1439.55,503.004 1445.5,501.5 Z"/></g>
<g><path style="opacity:1" fill="#0a0c0b" d="M 1882.5,501.5 C 1982.86,502.785 2083.19,502.785 2183.5,501.5C 2191.65,501.169 2199.65,502.003 2207.5,504C 2209.77,506.944 2211.1,510.278 2211.5,514C 2210.67,533.427 2210.17,552.927 2210,572.5C 2208.46,574.378 2206.62,575.878 2204.5,577C 2193.51,579.207 2182.67,579.373 2172,577.5C 2103.53,577.364 2034.37,577.53 1964.5,578C 1961.18,578.059 1958.34,579.226 1956,581.5C 1954.51,649.775 1954.01,718.109 1954.5,786.5C 2026.47,787.324 2098.47,787.824 2170.5,788C 2178.97,788.385 2182.63,792.885 2181.5,801.5C 2180.17,817.5 2180.17,833.5 2181.5,849.5C 2181.39,852.567 2180.89,855.567 2180,858.5C 2179.5,860.333 2178.33,861.5 2176.5,862C 2104.88,863.321 2033.21,863.987 1961.5,864C 1955.47,865.185 1952.8,868.852 1953.5,875C 1954.31,906.486 1954.81,938.319 1955,970.5C 1955.9,971.701 1957.07,972.535 1958.5,973C 2044.21,973.011 2129.88,973.677 2215.5,975C 2218.23,975.398 2220.07,976.898 2221,979.5C 2221.67,1001.17 2221.67,1022.83 2221,1044.5C 2219.73,1048.1 2217.23,1050.27 2213.5,1051C 2157,1051.17 2100.5,1051.33 2044,1051.5C 1986.75,1051.66 1929.59,1051.16 1872.5,1050C 1870.63,1046.75 1869.46,1043.25 1869,1039.5C 1868.68,863.166 1869.01,686.833 1870,510.5C 1870.3,508.112 1871.14,505.945 1872.5,504C 1875.95,503.115 1879.29,502.282 1882.5,501.5 Z"/></g>
<g><path style="opacity:1" fill="#090c0a" d="M 490.5,502.5 C 514.444,503.638 538.11,503.805 561.5,503C 565.142,502.712 567.642,504.212 569,507.5C 569.333,599.833 569.667,692.167 570,784.5C 568.863,790.999 571.363,795.165 577.5,797C 657.5,797.667 737.5,797.667 817.5,797C 820.945,795.612 823.111,793.112 824,789.5C 824.996,785.569 825.496,781.569 825.5,777.5C 824.618,701.214 824.285,628.047 824.5,558C 825.326,541.574 825.826,525.074 826,508.5C 826.273,506.671 827.107,505.171 828.5,504C 832.611,503.059 836.778,502.559 841,502.5C 859.609,503.784 877.943,503.784 896,502.5C 900.001,502.353 903.834,503.02 907.5,504.5C 908.098,505.795 908.598,507.128 909,508.5C 909.997,685.499 910.331,862.499 910,1039.5C 907.834,1048.28 902.168,1051.62 893,1049.5C 888.648,1049.43 884.481,1048.77 880.5,1047.5C 879.808,1048.03 879.308,1048.69 879,1049.5C 875.26,1048.21 871.26,1047.54 867,1047.5C 859.333,1048.17 851.667,1048.83 844,1049.5C 840.167,1049.17 836.333,1048.83 832.5,1048.5C 828.701,1047.2 826.535,1044.53 826,1040.5C 825.667,987.167 825.333,933.833 825,880.5C 824.537,876.037 822.037,873.537 817.5,873C 737.833,872.333 658.167,872.333 578.5,873C 575.484,873.22 572.984,874.387 571,876.5C 570.984,932.545 570.317,988.545 569,1044.5C 567.649,1046.02 566.149,1047.35 564.5,1048.5C 558.833,1048.83 553.167,1049.17 547.5,1049.5C 541.423,1049.48 535.59,1048.81 530,1047.5C 529.333,1050.17 528.667,1050.17 528,1047.5C 527.333,1050.17 526.667,1050.17 526,1047.5C 525.333,1050.17 524.667,1050.17 524,1047.5C 518.746,1048.81 513.246,1049.47 507.5,1049.5C 502.167,1049.17 496.833,1048.83 491.5,1048.5C 487.576,1046.32 485.409,1042.99 485,1038.5C 484.333,862.167 484.333,685.833 485,509.5C 485.233,505.78 487.066,503.447 490.5,502.5 Z"/></g>
<g><path style="opacity:1" fill="#6db244" d="M 3510.5,943.5 C 3511.83,943.5 3512.5,942.833 3512.5,941.5C 3529.48,930.597 3548.15,924.43 3568.5,923C 3593.67,921.035 3617.67,925.369 3640.5,936C 3652.85,943.756 3664.51,952.59 3675.5,962.5C 3676.28,963.729 3676.78,965.062 3677,966.5C 3684.24,974.74 3691.74,982.573 3699.5,990C 3704.2,992.349 3708.86,994.682 3713.5,997C 3724.55,998.257 3735.55,999.924 3746.5,1002C 3753.06,1005.56 3758.73,1010.23 3763.5,1016C 3764.45,1016.48 3765.45,1016.65 3766.5,1016.5C 3768.69,1022.96 3770.02,1029.62 3770.5,1036.5C 3769.17,1057.33 3758.17,1069.5 3737.5,1073C 3717.06,1074.87 3697.39,1071.87 3678.5,1064C 3656.01,1053.51 3637.85,1038.01 3624,1017.5C 3617.37,1012.7 3611.2,1007.36 3605.5,1001.5C 3592.1,997.348 3578.43,996.514 3564.5,999C 3560.27,1000.11 3556.27,1001.78 3552.5,1004C 3543.55,1011.28 3535.71,1019.45 3529,1028.5C 3500.08,1059.58 3464.08,1074.58 3421,1073.5C 3406.27,1073.95 3392.1,1071.45 3378.5,1066C 3368.88,1061.34 3359.54,1056.34 3350.5,1051C 3344.2,1045.33 3337.86,1039.67 3331.5,1034C 3327.95,1029.73 3324.79,1025.23 3322,1020.5C 3315.5,1015 3309.34,1009.17 3303.5,1003C 3285.97,994.874 3268.3,994.541 3250.5,1002C 3245.48,1006.68 3240.15,1011.02 3234.5,1015C 3210.76,1047.56 3178.76,1066.89 3138.5,1073C 3121.38,1074.13 3104.38,1073.3 3087.5,1070.5C 3087.5,1069.17 3086.83,1068.5 3085.5,1068.5C 3081.33,1067.96 3077.33,1066.79 3073.5,1065C 3063.16,1060.5 3053.16,1055.5 3043.5,1050C 3036.32,1042.15 3028.48,1034.99 3020,1028.5C 3016.76,1021.24 3011.93,1015.07 3005.5,1010C 3000.51,1004.83 2994.51,1001.16 2987.5,999C 2981.68,998.094 2975.84,997.26 2970,996.5C 2963.84,997.333 2957.67,998.166 2951.5,999C 2937.84,1005.65 2927.01,1015.49 2919,1028.5C 2873.69,1073.6 2820.85,1084.77 2760.5,1062C 2754.08,1058.12 2747.41,1054.79 2740.5,1052C 2733.51,1045.4 2726.34,1038.9 2719,1032.5C 2716.25,1027.33 2713.25,1022.33 2710,1017.5C 2704.84,1013.34 2700.01,1008.84 2695.5,1004C 2675.78,995.217 2656.11,995.383 2636.5,1004.5C 2630.51,1010.32 2624.34,1015.99 2618,1021.5C 2614.93,1024.71 2612.6,1028.37 2611,1032.5C 2606.87,1035.63 2603.03,1039.13 2599.5,1043C 2595.58,1044.58 2592.58,1047.25 2590.5,1051C 2577.6,1058.78 2563.94,1064.95 2549.5,1069.5C 2538.44,1071.7 2527.28,1073.04 2516,1073.5C 2498.4,1073.77 2485.73,1066.1 2478,1050.5C 2471.51,1026.99 2479.34,1010.49 2501.5,1001C 2519.27,1001.41 2535.27,996.407 2549.5,986C 2551.04,982.456 2553.71,980.456 2557.5,980C 2580.24,946.023 2612.24,927.023 2653.5,923C 2681.07,920.448 2707.07,925.448 2731.5,938C 2736.32,943.143 2741.98,947.143 2748.5,950C 2755.75,957.911 2762.92,965.744 2770,973.5C 2781.61,991.011 2798.11,999.345 2819.5,998.5C 2835.07,999.979 2848.4,995.313 2859.5,984.5C 2886.33,944.074 2924.33,923.407 2973.5,922.5C 2995.63,923.448 3016.63,928.615 3036.5,938C 3041.99,942.725 3047.99,946.725 3054.5,950C 3058.04,954.114 3062.04,957.781 3066.5,961C 3071.39,966.335 3075.55,972.168 3079,978.5C 3086.47,987.287 3095.63,993.787 3106.5,998C 3127.01,1002.81 3145.51,998.973 3162,986.5C 3162.33,985.5 3162.67,984.5 3163,983.5C 3171.48,974.682 3179.65,965.515 3187.5,956C 3200.94,944.594 3215.94,935.594 3232.5,929C 3266.95,919.489 3300.95,920.823 3334.5,933C 3348.84,940.67 3361.5,950.503 3372.5,962.5C 3375.32,968.127 3378.65,973.461 3382.5,978.5C 3387.16,981.531 3391.16,985.197 3394.5,989.5C 3416.83,1001.58 3439.17,1001.41 3461.5,989C 3466.01,984.489 3470.85,980.322 3476,976.5C 3479.42,971.997 3482.58,967.33 3485.5,962.5C 3491,958.498 3496,953.998 3500.5,949C 3503.91,947.257 3507.24,945.423 3510.5,943.5 Z"/></g>
<g><path style="opacity:1" fill="#090c0a" d="M 3512.5,941.5 C 3512.5,942.833 3511.83,943.5 3510.5,943.5C 3510.5,942.167 3511.17,941.5 3512.5,941.5 Z"/></g>
<g><path style="opacity:1" fill="#090c0a" d="M 3085.5,1068.5 C 3086.83,1068.5 3087.5,1069.17 3087.5,1070.5C 3086.17,1070.5 3085.5,1069.83 3085.5,1068.5 Z"/></g>
<g><path style="opacity:1" fill="#6db244" d="M 2579.5,1142.5 C 2942.83,1142.33 3306.17,1142.5 3669.5,1143C 3685.19,1143.9 3699.52,1148.56 3712.5,1157C 3717.91,1158.54 3722.91,1160.87 3727.5,1164C 3768.26,1196.64 3781.26,1238.31 3766.5,1289C 3754.33,1315.62 3735.33,1335.95 3709.5,1350C 3697.85,1354.25 3685.85,1357.25 3673.5,1359C 3601.93,1359.17 3530.43,1359.67 3459,1360.5C 3170.75,1360.87 2877.25,1360.37 2578.5,1359C 2567.69,1357.28 2557.02,1354.95 2546.5,1352C 2532.25,1344.74 2519.42,1335.57 2508,1324.5C 2500.96,1314.45 2494.29,1304.12 2488,1293.5C 2472.09,1249.29 2479.92,1209.96 2511.5,1175.5C 2516.33,1172.17 2520.66,1168.33 2524.5,1164C 2528.2,1160.65 2532.53,1158.65 2537.5,1158C 2543.94,1152.78 2551.27,1149.11 2559.5,1147C 2566.26,1145.28 2572.93,1143.78 2579.5,1142.5 Z M 3510.5,1216.5 C 3511.17,1219.17 3511.83,1219.17 3512.5,1216.5C 3514.45,1216.23 3515.95,1216.89 3517,1218.5C 3518.33,1215.83 3519.67,1215.83 3521,1218.5C 3522.67,1215.83 3524.33,1215.83 3526,1218.5C 3527.67,1215.83 3529.33,1215.83 3531,1218.5C 3532.67,1215.83 3534.33,1215.83 3536,1218.5C 3537.67,1215.83 3539.33,1215.83 3541,1218.5C 3542.67,1215.83 3544.33,1215.83 3546,1218.5C 3547.67,1215.83 3549.33,1215.83 3551,1218.5C 3552.67,1215.83 3554.33,1215.83 3556,1218.5C 3557.67,1215.83 3559.33,1215.83 3561,1218.5C 3562.67,1215.83 3564.33,1215.83 3566,1218.5C 3568.11,1216.71 3570.61,1216.04 3573.5,1216.5C 3574.5,1219.17 3575.5,1219.17 3576.5,1216.5C 3576.83,1216.5 3577.17,1216.5 3577.5,1216.5C 3578.5,1219.17 3579.5,1219.17 3580.5,1216.5C 3580.83,1216.5 3581.17,1216.5 3581.5,1216.5C 3582.5,1219.17 3583.5,1219.17 3584.5,1216.5C 3584.83,1216.5 3585.17,1216.5 3585.5,1216.5C 3585.97,1217.69 3586.97,1218.36 3588.5,1218.5C 3590.03,1218.36 3591.03,1217.69 3591.5,1216.5C 3591.83,1216.5 3592.17,1216.5 3592.5,1216.5C 3593.5,1219.17 3594.5,1219.17 3595.5,1216.5C 3596.17,1216.5 3596.83,1216.5 3597.5,1216.5C 3598.5,1219.17 3599.5,1219.17 3600.5,1216.5C 3600.83,1216.5 3601.17,1216.5 3601.5,1216.5C 3602.5,1219.17 3603.5,1219.17 3604.5,1216.5C 3604.83,1216.5 3605.17,1216.5 3605.5,1216.5C 3606.17,1219.17 3606.83,1219.17 3607.5,1216.5C 3607.83,1216.5 3608.17,1216.5 3608.5,1216.5C 3609.5,1219.17 3610.5,1219.17 3611.5,1216.5C 3611.83,1216.5 3612.17,1216.5 3612.5,1216.5C 3613.5,1219.17 3614.5,1219.17 3615.5,1216.5C 3615.83,1216.5 3616.17,1216.5 3616.5,1216.5C 3616.62,1217.59 3617.29,1218.25 3618.5,1218.5C 3619.71,1218.25 3620.38,1217.59 3620.5,1216.5C 3620.83,1216.5 3621.17,1216.5 3621.5,1216.5C 3621.97,1217.69 3622.97,1218.36 3624.5,1218.5C 3626.03,1218.36 3627.03,1217.69 3627.5,1216.5C 3627.83,1216.5 3628.17,1216.5 3628.5,1216.5C 3629.5,1219.17 3630.5,1219.17 3631.5,1216.5C 3631.83,1216.5 3632.17,1216.5 3632.5,1216.5C 3633.5,1219.17 3634.5,1219.17 3635.5,1216.5C 3635.83,1216.5 3636.17,1216.5 3636.5,1216.5C 3636.62,1217.59 3637.29,1218.25 3638.5,1218.5C 3639.71,1218.25 3640.38,1217.59 3640.5,1216.5C 3640.83,1216.5 3641.17,1216.5 3641.5,1216.5C 3642.17,1219.17 3642.83,1219.17 3643.5,1216.5C 3643.83,1216.5 3644.17,1216.5 3644.5,1216.5C 3645.5,1219.17 3646.5,1219.17 3647.5,1216.5C 3647.83,1216.5 3648.17,1216.5 3648.5,1216.5C 3649.5,1219.17 3650.5,1219.17 3651.5,1216.5C 3651.83,1216.5 3652.17,1216.5 3652.5,1216.5C 3653.18,1218.18 3654.52,1218.84 3656.5,1218.5C 3671.93,1218.14 3684.1,1224.14 3693,1236.5C 3701.43,1264.04 3691.6,1280.54 3663.5,1286C 3305.5,1286.67 2947.5,1286.67 2589.5,1286C 2569.84,1283.51 2558.51,1272.34 2555.5,1252.5C 2557.31,1247.26 2558.81,1241.93 2560,1236.5C 2567.81,1225.17 2578.64,1218.84 2592.5,1217.5C 2741.33,1217.17 2890.17,1216.83 3039,1216.5C 3188.21,1216.5 3337.21,1217.17 3486,1218.5C 3488,1215.83 3490,1215.83 3492,1218.5C 3493.67,1215.83 3495.33,1215.83 3497,1218.5C 3498.33,1215.83 3499.67,1215.83 3501,1218.5C 3502.67,1215.83 3504.33,1215.83 3506,1218.5C 3507.05,1216.89 3508.55,1216.23 3510.5,1216.5 Z"/></g>
<g><path style="opacity:1" fill="#090c0a" d="M 2352.5,1156.5 C 2373.92,1154.46 2389.09,1163.13 2398,1182.5C 2400.99,1196.01 2399.66,1209.01 2394,1221.5C 2392.21,1224.3 2390.04,1226.8 2387.5,1229C 2382.18,1232.66 2376.51,1235.83 2370.5,1238.5C 2348.46,1242.88 2331.63,1235.55 2320,1216.5C 2310.78,1191.16 2317.95,1171.99 2341.5,1159C 2345.39,1158.58 2349.06,1157.75 2352.5,1156.5 Z M 2352.5,1162.5 C 2372.06,1161.35 2384.89,1170.02 2391,1188.5C 2394.29,1204.31 2389.79,1217.47 2377.5,1228C 2365.3,1233.51 2352.97,1233.85 2340.5,1229C 2331.99,1223.48 2327.16,1215.65 2326,1205.5C 2322.24,1182.97 2331.07,1168.64 2352.5,1162.5 Z M 2350.5,1180.5 C 2356.26,1180.15 2361.93,1180.65 2367.5,1182C 2370.17,1185.67 2370.17,1189.33 2367.5,1193C 2362.11,1193.21 2356.78,1193.71 2351.5,1194.5C 2350.51,1189.88 2350.17,1185.21 2350.5,1180.5 Z"/></g>
<g><path style="opacity:1" fill="#0a0c0b" d="M 248.5,1157.5 C 285.59,1154.62 320.257,1162.12 352.5,1180C 374.325,1194.49 392.159,1212.99 406,1235.5C 408.704,1241.05 407.537,1245.55 402.5,1249C 390.77,1255.19 379.436,1261.86 368.5,1269C 362.947,1272.94 357.613,1277.1 352.5,1281.5C 347.924,1283.08 343.758,1282.42 340,1279.5C 336.797,1272.3 332.13,1266.3 326,1261.5C 323.668,1257.02 320.501,1253.19 316.5,1250C 308.902,1246.2 301.568,1241.86 294.5,1237C 280.165,1231.71 265.498,1230.04 250.5,1232C 212.573,1236.76 192.24,1258.26 189.5,1296.5C 189.916,1309.25 193.083,1321.25 199,1332.5C 205.844,1339.34 212.677,1346.18 219.5,1353C 227.733,1356.07 235.066,1360.57 241.5,1366.5C 272.076,1379.67 302.41,1393.33 332.5,1407.5C 342.366,1415.27 353.033,1421.77 364.5,1427C 373.41,1434.41 382.744,1441.24 392.5,1447.5C 396.479,1453.31 401.313,1458.31 407,1462.5C 410.016,1468.51 414.016,1473.85 419,1478.5C 428.145,1494.93 435.145,1512.26 440,1530.5C 446.497,1571.71 440.163,1610.71 421,1647.5C 418.39,1652.11 415.057,1656.11 411,1659.5C 410,1661.5 409,1663.5 408,1665.5C 388.511,1684.61 365.678,1698.45 339.5,1707C 323.987,1710.77 308.32,1713.77 292.5,1716C 258.148,1720.33 224.482,1717.33 191.5,1707C 178.136,1700.98 164.803,1694.98 151.5,1689C 134.473,1678.21 118.973,1665.37 105,1650.5C 101.029,1644.2 96.3621,1638.53 91,1633.5C 86.6667,1625.83 82.3333,1618.17 78,1610.5C 77.3333,1607.83 77.3333,1605.17 78,1602.5C 91.564,1593.63 105.731,1585.63 120.5,1578.5C 126.576,1572.6 133.742,1568.6 142,1566.5C 143.627,1566.63 145.127,1567.13 146.5,1568C 153.644,1578.8 161.144,1589.3 169,1599.5C 178.943,1608.79 189.443,1617.29 200.5,1625C 238.258,1643.35 276.924,1645.35 316.5,1631C 324.654,1626.54 332.154,1621.38 339,1615.5C 342.796,1609.41 346.963,1603.58 351.5,1598C 356.739,1587.48 359.073,1576.31 358.5,1564.5C 358.735,1554.11 356.902,1544.11 353,1534.5C 346.94,1524.77 339.773,1515.94 331.5,1508C 319.063,1499.63 306.396,1491.63 293.5,1484C 277.202,1478.02 261.535,1470.68 246.5,1462C 237.849,1459.51 229.515,1456.18 221.5,1452C 214.978,1446.74 207.645,1443.07 199.5,1441C 195.431,1437.94 191.098,1435.27 186.5,1433C 181.943,1428.25 176.61,1424.58 170.5,1422C 162.32,1415.48 154.487,1408.65 147,1401.5C 144.333,1397.5 141.667,1393.5 139,1389.5C 137.989,1388.66 136.822,1388.33 135.5,1388.5C 127.872,1374.91 121.205,1360.74 115.5,1346C 106.189,1314.99 106.189,1283.99 115.5,1253C 120.81,1239.21 127.31,1226.05 135,1213.5C 138.297,1211.2 141.297,1208.54 144,1205.5C 145.894,1201.76 148.394,1198.43 151.5,1195.5C 165.906,1183.96 181.573,1174.46 198.5,1167C 214.767,1160.91 231.434,1157.75 248.5,1157.5 Z"/></g>
<g><path style="opacity:1" fill="#090c0a" d="M 1641.5,1157.5 C 1686.75,1155.7 1730.41,1162.87 1772.5,1179C 1800.05,1191.76 1824.38,1208.93 1845.5,1230.5C 1850.08,1237.66 1855.58,1244 1862,1249.5C 1865.61,1254.39 1868.45,1259.72 1870.5,1265.5C 1868.42,1269.17 1865.75,1272.34 1862.5,1275C 1846.51,1285.68 1831.18,1297.02 1816.5,1309C 1812.16,1312.47 1808,1312.31 1804,1308.5C 1801.39,1303.56 1798.39,1298.9 1795,1294.5C 1787.83,1287.33 1780.67,1280.17 1773.5,1273C 1761.83,1265.16 1749.83,1257.83 1737.5,1251C 1712.65,1241.6 1686.99,1236.1 1660.5,1234.5C 1627.07,1235.94 1595.4,1244.11 1565.5,1259C 1563.18,1262.64 1559.85,1264.64 1555.5,1265C 1548.12,1271.38 1540.45,1277.38 1532.5,1283C 1527.25,1289.58 1521.42,1295.41 1515,1300.5C 1511.1,1307.95 1506.43,1314.95 1501,1321.5C 1480.94,1355.89 1470.78,1393.06 1470.5,1433C 1471.08,1445.81 1472.08,1459.47 1473.5,1474C 1475.43,1483.82 1477.26,1493.65 1479,1503.5C 1495.92,1561.61 1532.08,1602.77 1587.5,1627C 1596.82,1631.08 1606.48,1634.08 1616.5,1636C 1646.6,1641.14 1676.6,1641.14 1706.5,1636C 1730.66,1630.4 1751.99,1619.73 1770.5,1604C 1772.73,1603.44 1774.73,1602.44 1776.5,1601C 1782.02,1593.98 1788.35,1587.81 1795.5,1582.5C 1800.42,1574.74 1805.92,1567.41 1812,1560.5C 1813.68,1558.93 1815.68,1557.93 1818,1557.5C 1824.57,1561.2 1831.07,1565.03 1837.5,1569C 1841.96,1572.22 1845.96,1575.89 1849.5,1580C 1860.06,1584.78 1869.39,1591.28 1877.5,1599.5C 1876.67,1607.27 1873.17,1613.93 1867,1619.5C 1864.6,1624.61 1861.44,1629.27 1857.5,1633.5C 1853.11,1635.72 1849.95,1639.05 1848,1643.5C 1843.68,1648.83 1838.51,1653 1832.5,1656C 1828.61,1660.76 1824.28,1665.1 1819.5,1669C 1810.78,1673.35 1802.78,1678.69 1795.5,1685C 1722.7,1720.72 1647.2,1727.55 1569,1705.5C 1567.19,1704.24 1565.36,1703.07 1563.5,1702C 1552.28,1697.3 1540.95,1692.8 1529.5,1688.5C 1518.18,1680.5 1506.51,1673 1494.5,1666C 1492.83,1664 1491.17,1662 1489.5,1660C 1481.69,1654.68 1474.35,1648.84 1467.5,1642.5C 1459.79,1633.08 1451.62,1624.08 1443,1615.5C 1440.18,1609.49 1436.18,1604.49 1431,1600.5C 1422.82,1586.33 1414.82,1572 1407,1557.5C 1399.53,1537.24 1393.36,1516.58 1388.5,1495.5C 1384.04,1460.27 1384.04,1424.6 1388.5,1388.5C 1393.08,1367.52 1398.58,1346.85 1405,1326.5C 1411.33,1313.17 1417.67,1299.83 1424,1286.5C 1431.91,1275.68 1439.58,1264.68 1447,1253.5C 1450.37,1249.8 1454.03,1246.46 1458,1243.5C 1462.24,1236.26 1468.08,1230.76 1475.5,1227C 1479.81,1222.69 1484.14,1218.36 1488.5,1214C 1497.94,1208.23 1507.1,1202.06 1516,1195.5C 1534.57,1186.3 1553.4,1177.8 1572.5,1170C 1595.02,1162.34 1618.02,1158.17 1641.5,1157.5 Z"/></g>
<g><path style="opacity:1" fill="#090c0a" d="M 1170.5,1158.5 C 1176.02,1157.6 1179.85,1159.6 1182,1164.5C 1192.32,1192.14 1203.32,1219.47 1215,1246.5C 1220.82,1256.59 1225.48,1267.26 1229,1278.5C 1247.77,1320.04 1265.44,1362.04 1282,1404.5C 1283.33,1405.17 1284.33,1406.17 1285,1407.5C 1290.97,1422 1296.63,1436.67 1302,1451.5C 1303.04,1454.57 1304.71,1457.23 1307,1459.5C 1317.62,1486.69 1328.62,1513.69 1340,1540.5C 1347.02,1553.21 1352.68,1566.54 1357,1580.5C 1375.31,1621.12 1392.65,1662.12 1409,1703.5C 1410.48,1708.36 1408.64,1710.53 1403.5,1710C 1397.33,1710.17 1391.17,1710.33 1385,1710.5C 1378.06,1710.42 1371.23,1709.76 1364.5,1708.5C 1350.65,1711.57 1336.99,1711.07 1323.5,1707C 1317.37,1698.89 1313.87,1689.73 1313,1679.5C 1309.8,1672.41 1307.3,1665.08 1305.5,1657.5C 1302.51,1650.87 1299.51,1644.2 1296.5,1637.5C 1292.89,1634.86 1288.89,1633.03 1284.5,1632C 1208.53,1633.25 1132.53,1633.92 1056.5,1634C 1054.35,1635.41 1052.02,1636.24 1049.5,1636.5C 1045.03,1650.07 1039.86,1663.41 1034,1676.5C 1033,1680.5 1032,1684.5 1031,1688.5C 1029.84,1689 1029.01,1689.83 1028.5,1691C 1026.74,1696.63 1024.4,1701.97 1021.5,1707C 1019.5,1708 1017.5,1709 1015.5,1710C 992.833,1710.67 970.167,1710.67 947.5,1710C 945.899,1709.73 944.399,1709.23 943,1708.5C 942.333,1705.17 942.333,1701.83 943,1698.5C 945.37,1695.39 947.37,1692.06 949,1688.5C 961.429,1659.9 973.095,1630.9 984,1601.5C 987.709,1595.05 991.043,1588.38 994,1581.5C 995.586,1576.9 996.919,1572.24 998,1567.5C 1001.09,1562.17 1003.42,1556.5 1005,1550.5C 1005.81,1548.69 1006.98,1547.19 1008.5,1546C 1015.17,1526.65 1023,1507.81 1032,1489.5C 1042.69,1460.42 1054.36,1431.75 1067,1403.5C 1067.42,1399.99 1068.42,1396.66 1070,1393.5C 1074.27,1385.3 1078.27,1376.96 1082,1368.5C 1086.33,1354.19 1091.99,1340.53 1099,1327.5C 1103.69,1311.68 1110.02,1296.68 1118,1282.5C 1123.3,1265.57 1129.97,1249.23 1138,1233.5C 1147.15,1209.72 1156.48,1186.05 1166,1162.5C 1167.4,1160.93 1168.9,1159.6 1170.5,1158.5 Z M 1169.5,1319.5 C 1170.79,1320.06 1171.62,1321.06 1172,1322.5C 1172.44,1328.71 1174.6,1334.21 1178.5,1339C 1184.07,1352.95 1188.9,1367.12 1193,1381.5C 1201.36,1398.54 1208.36,1416.21 1214,1434.5C 1220.37,1446.61 1225.37,1459.27 1229,1472.5C 1240.57,1500.6 1252.07,1528.77 1263.5,1557C 1262.49,1558.67 1261.16,1560.01 1259.5,1561C 1201.17,1561.67 1142.83,1561.67 1084.5,1561C 1083.87,1560.25 1083.37,1559.42 1083,1558.5C 1084.74,1546.35 1088.74,1535.02 1095,1524.5C 1100,1510.83 1105,1497.17 1110,1483.5C 1115.83,1472.03 1120.49,1460.03 1124,1447.5C 1137.58,1413.75 1150.58,1379.75 1163,1345.5C 1165.69,1336.94 1167.85,1328.28 1169.5,1319.5 Z"/></g>
<g><path style="opacity:1" fill="#0a0c0b" d="M 496.5,1162.5 C 519.836,1163.67 543.17,1163.83 566.5,1163C 569.816,1163.45 571.982,1165.29 573,1168.5C 573.333,1260.5 573.667,1352.5 574,1444.5C 574.18,1447.96 574.847,1451.29 576,1454.5C 577.171,1455.89 578.671,1456.73 580.5,1457C 661.167,1457.67 741.833,1457.67 822.5,1457C 826.635,1455.2 828.802,1452.03 829,1447.5C 829.333,1354.83 829.667,1262.17 830,1169.5C 830.346,1167.15 831.513,1165.32 833.5,1164C 837.245,1162.95 841.079,1162.45 845,1162.5C 862.833,1163.82 880.666,1163.82 898.5,1162.5C 905.449,1160.78 910.283,1163.11 913,1169.5C 913.667,1348.5 913.667,1527.5 913,1706.5C 911.421,1708.04 909.587,1709.21 907.5,1710C 883.366,1711.24 859.699,1711.24 836.5,1710C 831.645,1707.96 829.311,1704.29 829.5,1699C 829.559,1652.9 829.725,1600.4 830,1541.5C 828.604,1537.19 825.771,1534.36 821.5,1533C 812,1532.83 802.5,1532.67 793,1532.5C 774.703,1533.15 758.703,1533.15 745,1532.5C 732.667,1533.17 720.333,1533.83 708,1534.5C 675.104,1532.62 643.438,1531.95 613,1532.5C 603.833,1532.67 594.667,1532.83 585.5,1533C 580.26,1532.91 577.093,1535.41 576,1540.5C 575.971,1595.86 575.304,1651.19 574,1706.5C 570.425,1709.97 566.092,1711.3 561,1710.5C 542.999,1709.19 524.999,1709.19 507,1710.5C 501.436,1711.03 496.436,1709.69 492,1706.5C 490.53,1572.53 489.364,1438.53 488.5,1304.5C 488.667,1260.5 488.833,1216.5 489,1172.5C 489.501,1167.52 492.001,1164.18 496.5,1162.5 Z"/></g>
<g><path style="opacity:1" fill="#090c0a" d="M 1922.5,1163.5 C 1946.17,1163.33 1969.84,1163.5 1993.5,1164C 1997.12,1164.28 1999.62,1166.12 2001,1169.5C 2001.67,1242.5 2001.67,1315.5 2001,1388.5C 2000.37,1410.92 1998.87,1433.25 1996.5,1455.5C 1997.65,1456.73 1998.82,1456.73 2000,1455.5C 2010.62,1432.91 2023.29,1411.58 2038,1391.5C 2042.52,1382.32 2048.52,1374.32 2056,1367.5C 2058.25,1363.99 2060.25,1360.33 2062,1356.5C 2071.76,1345.57 2080.6,1333.9 2088.5,1321.5C 2095.04,1316.03 2099.87,1309.36 2103,1301.5C 2108.51,1296.1 2113.18,1290.1 2117,1283.5C 2128.39,1270.39 2139.05,1256.72 2149,1242.5C 2149.72,1240.05 2150.72,1237.72 2152,1235.5C 2159.03,1229.75 2164.37,1222.75 2168,1214.5C 2177.8,1204.69 2186.14,1193.69 2193,1181.5C 2197.68,1177.15 2201.85,1172.32 2205.5,1167C 2207.5,1166 2209.5,1165 2211.5,1164C 2242.5,1163.33 2273.5,1163.33 2304.5,1164C 2302,1165.83 2299.83,1168 2298,1170.5C 2293.21,1179.97 2286.87,1188.3 2279,1195.5C 2276.76,1198.97 2274.76,1202.64 2273,1206.5C 2256.69,1228.7 2240.03,1250.7 2223,1272.5C 2221.63,1275.99 2220.13,1279.32 2218.5,1282.5C 2217.18,1282.33 2216.01,1282.66 2215,1283.5C 2208.58,1291.35 2202.91,1299.68 2198,1308.5C 2190.79,1315.04 2185.13,1322.71 2181,1331.5C 2174.63,1336.58 2169.96,1342.91 2167,1350.5C 2149.94,1371.6 2133.61,1393.27 2118,1415.5C 2117.33,1418.17 2117.33,1420.83 2118,1423.5C 2119.67,1426.5 2121.33,1429.5 2123,1432.5C 2132.02,1443.58 2140.69,1454.91 2149,1466.5C 2150,1468.83 2151,1471.17 2152,1473.5C 2158.82,1479.82 2164.32,1487.15 2168.5,1495.5C 2177.36,1504.86 2184.86,1515.19 2191,1526.5C 2197.3,1531.12 2201.63,1537.12 2204,1544.5C 2209.7,1551.52 2215.36,1558.52 2221,1565.5C 2224,1570.5 2227,1575.5 2230,1580.5C 2244.7,1599.86 2259.36,1619.19 2274,1638.5C 2274.36,1640.61 2275.03,1642.61 2276,1644.5C 2283.71,1651.59 2289.71,1659.93 2294,1669.5C 2297.33,1673.83 2300.99,1677.83 2305,1681.5C 2308.49,1687.81 2312.49,1693.81 2317,1699.5C 2318.5,1702.68 2320,1705.85 2321.5,1709C 2305.82,1710.16 2289.98,1710.66 2274,1710.5C 2258.5,1710.33 2243,1710.17 2227.5,1710C 2225.39,1709.64 2223.39,1708.97 2221.5,1708C 2216.47,1701.48 2211.31,1694.98 2206,1688.5C 2202.18,1680.02 2196.84,1672.69 2190,1666.5C 2185.53,1657.69 2179.86,1649.69 2173,1642.5C 2154.74,1615.58 2135.74,1589.25 2116,1563.5C 2111.17,1555.32 2105.5,1547.65 2099,1540.5C 2098.03,1538.61 2097.36,1536.61 2097,1534.5C 2092.09,1529.38 2087.42,1524.05 2083,1518.5C 2076.41,1506.59 2068.41,1495.92 2059,1486.5C 2054.7,1488.3 2051.53,1491.3 2049.5,1495.5C 2048.25,1496.04 2047.09,1496.71 2046,1497.5C 2044.37,1501.06 2042.37,1504.39 2040,1507.5C 2032.28,1515.89 2024.61,1524.22 2017,1532.5C 2014.59,1537.66 2011.92,1542.66 2009,1547.5C 2007.76,1553.47 2005.76,1559.14 2003,1564.5C 2001.08,1572.55 1999.91,1580.72 1999.5,1589C 2001.5,1606.28 2002.5,1623.61 2002.5,1641C 2002.1,1661.56 2001.6,1682.39 2001,1703.5C 2000.55,1706.82 1998.71,1708.98 1995.5,1710C 1974.26,1710.17 1953.09,1710.67 1932,1711.5C 1929.5,1711 1926.67,1710.5 1923.5,1710C 1921.92,1709.29 1920.42,1708.46 1919,1707.5C 1918.21,1704.53 1917.54,1701.53 1917,1698.5C 1916.83,1683.67 1916.67,1668.83 1916.5,1654C 1917.43,1492.83 1917.6,1331.67 1917,1170.5C 1917.45,1166.88 1919.28,1164.55 1922.5,1163.5 Z"/></g>
<g><path style="opacity:1" fill="#0a0c0b" d="M 2342.5,1172.5 C 2351.56,1172.15 2360.56,1172.65 2369.5,1174C 2378.98,1179.22 2380.98,1186.56 2375.5,1196C 2373.16,1198.84 2370.16,1200.67 2366.5,1201.5C 2371.36,1208.2 2376.03,1215.03 2380.5,1222C 2377.47,1222.44 2374.64,1222.94 2372,1223.5C 2367.32,1216.65 2362.82,1209.65 2358.5,1202.5C 2355.91,1201.52 2353.25,1201.19 2350.5,1201.5C 2350.5,1208.5 2350.5,1215.5 2350.5,1222.5C 2347.91,1223.44 2345.41,1223.77 2343,1223.5C 2342.5,1206.5 2342.33,1189.5 2342.5,1172.5 Z M 2350.5,1180.5 C 2350.17,1185.21 2350.51,1189.88 2351.5,1194.5C 2356.78,1193.71 2362.11,1193.21 2367.5,1193C 2370.17,1189.33 2370.17,1185.67 2367.5,1182C 2361.93,1180.65 2356.26,1180.15 2350.5,1180.5 Z"/></g>
<g><path style="opacity:1" fill="#090c0a" d="M 3510.5,1216.5 C 3511.17,1216.5 3511.83,1216.5 3512.5,1216.5C 3511.83,1219.17 3511.17,1219.17 3510.5,1216.5 Z"/></g>
<g><path style="opacity:1" fill="#090c0a" d="M 3573.5,1216.5 C 3574.5,1216.5 3575.5,1216.5 3576.5,1216.5C 3575.5,1219.17 3574.5,1219.17 3573.5,1216.5 Z"/></g>
<g><path style="opacity:1" fill="#090c0a" d="M 3577.5,1216.5 C 3578.5,1216.5 3579.5,1216.5 3580.5,1216.5C 3579.5,1219.17 3578.5,1219.17 3577.5,1216.5 Z"/></g>
<g><path style="opacity:1" fill="#090c0a" d="M 3581.5,1216.5 C 3582.5,1216.5 3583.5,1216.5 3584.5,1216.5C 3583.5,1219.17 3582.5,1219.17 3581.5,1216.5 Z"/></g>
<g><path style="opacity:1" fill="#090c0a" d="M 3585.5,1216.5 C 3587.5,1216.5 3589.5,1216.5 3591.5,1216.5C 3591.03,1217.69 3590.03,1218.36 3588.5,1218.5C 3586.97,1218.36 3585.97,1217.69 3585.5,1216.5 Z"/></g>
<g><path style="opacity:1" fill="#090c0a" d="M 3592.5,1216.5 C 3593.5,1216.5 3594.5,1216.5 3595.5,1216.5C 3594.5,1219.17 3593.5,1219.17 3592.5,1216.5 Z"/></g>
<g><path style="opacity:1" fill="#090c0a" d="M 3597.5,1216.5 C 3598.5,1216.5 3599.5,1216.5 3600.5,1216.5C 3599.5,1219.17 3598.5,1219.17 3597.5,1216.5 Z"/></g>
<g><path style="opacity:1" fill="#090c0a" d="M 3601.5,1216.5 C 3602.5,1216.5 3603.5,1216.5 3604.5,1216.5C 3603.5,1219.17 3602.5,1219.17 3601.5,1216.5 Z"/></g>
<g><path style="opacity:1" fill="#090c0a" d="M 3605.5,1216.5 C 3606.17,1216.5 3606.83,1216.5 3607.5,1216.5C 3606.83,1219.17 3606.17,1219.17 3605.5,1216.5 Z"/></g>
<g><path style="opacity:1" fill="#090c0a" d="M 3608.5,1216.5 C 3609.5,1216.5 3610.5,1216.5 3611.5,1216.5C 3610.5,1219.17 3609.5,1219.17 3608.5,1216.5 Z"/></g>
<g><path style="opacity:1" fill="#090c0a" d="M 3612.5,1216.5 C 3613.5,1216.5 3614.5,1216.5 3615.5,1216.5C 3614.5,1219.17 3613.5,1219.17 3612.5,1216.5 Z"/></g>
<g><path style="opacity:1" fill="#090c0a" d="M 3616.5,1216.5 C 3617.83,1216.5 3619.17,1216.5 3620.5,1216.5C 3620.38,1217.59 3619.71,1218.25 3618.5,1218.5C 3617.29,1218.25 3616.62,1217.59 3616.5,1216.5 Z"/></g>
<g><path style="opacity:1" fill="#090c0a" d="M 3621.5,1216.5 C 3623.5,1216.5 3625.5,1216.5 3627.5,1216.5C 3627.03,1217.69 3626.03,1218.36 3624.5,1218.5C 3622.97,1218.36 3621.97,1217.69 3621.5,1216.5 Z"/></g>
<g><path style="opacity:1" fill="#090c0a" d="M 3628.5,1216.5 C 3629.5,1216.5 3630.5,1216.5 3631.5,1216.5C 3630.5,1219.17 3629.5,1219.17 3628.5,1216.5 Z"/></g>
<g><path style="opacity:1" fill="#090c0a" d="M 3632.5,1216.5 C 3633.5,1216.5 3634.5,1216.5 3635.5,1216.5C 3634.5,1219.17 3633.5,1219.17 3632.5,1216.5 Z"/></g>
<g><path style="opacity:1" fill="#090c0a" d="M 3636.5,1216.5 C 3637.83,1216.5 3639.17,1216.5 3640.5,1216.5C 3640.38,1217.59 3639.71,1218.25 3638.5,1218.5C 3637.29,1218.25 3636.62,1217.59 3636.5,1216.5 Z"/></g>
<g><path style="opacity:1" fill="#090c0a" d="M 3641.5,1216.5 C 3642.17,1216.5 3642.83,1216.5 3643.5,1216.5C 3642.83,1219.17 3642.17,1219.17 3641.5,1216.5 Z"/></g>
<g><path style="opacity:1" fill="#090c0a" d="M 3644.5,1216.5 C 3645.5,1216.5 3646.5,1216.5 3647.5,1216.5C 3646.5,1219.17 3645.5,1219.17 3644.5,1216.5 Z"/></g>
<g><path style="opacity:1" fill="#090c0a" d="M 3648.5,1216.5 C 3649.5,1216.5 3650.5,1216.5 3651.5,1216.5C 3650.5,1219.17 3649.5,1219.17 3648.5,1216.5 Z"/></g>
<g><path style="opacity:1" fill="#090c0a" d="M 3652.5,1216.5 C 3654.48,1216.16 3655.82,1216.82 3656.5,1218.5C 3654.52,1218.84 3653.18,1218.18 3652.5,1216.5 Z"/></g>
<g><path style="opacity:1" fill="#6db244" d="M 3427.5,1724.5 C 3426.83,1724.5 3426.17,1724.5 3425.5,1724.5C 3423.55,1724.23 3422.05,1724.89 3421,1726.5C 3419.33,1723.83 3417.67,1723.83 3416,1726.5C 3414.82,1725.32 3413.32,1724.65 3411.5,1724.5C 3409.68,1724.65 3408.18,1725.32 3407,1726.5C 3405,1723.83 3403,1723.83 3401,1726.5C 3399.33,1723.83 3397.67,1723.83 3396,1726.5C 3395,1723.83 3394,1723.83 3393,1726.5C 3392.72,1725.58 3392.22,1724.92 3391.5,1724.5C 3390.5,1724.5 3389.5,1724.5 3388.5,1724.5C 3388.17,1724.5 3387.83,1724.5 3387.5,1724.5C 3386.5,1724.5 3385.5,1724.5 3384.5,1724.5C 3383.83,1724.5 3383.17,1724.5 3382.5,1724.5C 3381.5,1724.5 3380.5,1724.5 3379.5,1724.5C 3379.17,1724.5 3378.83,1724.5 3378.5,1724.5C 3376.5,1724.5 3374.5,1724.5 3372.5,1724.5C 3372.17,1724.5 3371.83,1724.5 3371.5,1724.5C 3370.5,1724.5 3369.5,1724.5 3368.5,1724.5C 3368.17,1724.5 3367.83,1724.5 3367.5,1724.5C 3366.5,1724.5 3365.5,1724.5 3364.5,1724.5C 3364.17,1724.5 3363.83,1724.5 3363.5,1724.5C 3362.17,1724.5 3360.83,1724.5 3359.5,1724.5C 3359.17,1724.5 3358.83,1724.5 3358.5,1724.5C 3356.82,1724.29 3355.82,1724.95 3355.5,1726.5C 3355.17,1726.5 3354.83,1726.5 3354.5,1726.5C 3354.38,1725.41 3353.71,1724.75 3352.5,1724.5C 3351.29,1724.75 3350.62,1725.41 3350.5,1726.5C 3350.17,1726.5 3349.83,1726.5 3349.5,1726.5C 3349.38,1725.41 3348.71,1724.75 3347.5,1724.5C 3346.29,1724.75 3345.62,1725.41 3345.5,1726.5C 3345.17,1726.5 3344.83,1726.5 3344.5,1726.5C 3343.49,1725.24 3341.99,1724.57 3340,1724.5C 3338.01,1724.57 3336.51,1725.24 3335.5,1726.5C 3335.17,1726.5 3334.83,1726.5 3334.5,1726.5C 3334.38,1725.41 3333.71,1724.75 3332.5,1724.5C 3331.29,1724.75 3330.62,1725.41 3330.5,1726.5C 3330.17,1726.5 3329.83,1726.5 3329.5,1726.5C 3329.38,1725.41 3328.71,1724.75 3327.5,1724.5C 3326.29,1724.75 3325.62,1725.41 3325.5,1726.5C 3325.17,1726.5 3324.83,1726.5 3324.5,1726.5C 3323.83,1723.83 3323.17,1723.83 3322.5,1726.5C 3307.83,1726.5 3293.17,1726.5 3278.5,1726.5C 3277.83,1723.83 3277.17,1723.83 3276.5,1726.5C 3270.17,1726.5 3263.83,1726.5 3257.5,1726.5C 3256.83,1723.83 3256.17,1723.83 3255.5,1726.5C 3157.17,1726.5 3058.83,1726.5 2960.5,1726.5C 2959.83,1723.83 2959.17,1723.83 2958.5,1726.5C 2952.17,1726.5 2945.83,1726.5 2939.5,1726.5C 2938.83,1723.83 2938.17,1723.83 2937.5,1726.5C 2931.17,1726.5 2924.83,1726.5 2918.5,1726.5C 2917.83,1723.83 2917.17,1723.83 2916.5,1726.5C 2910.17,1726.5 2903.83,1726.5 2897.5,1726.5C 2896.5,1723.83 2895.5,1723.83 2894.5,1726.5C 2894.17,1726.5 2893.83,1726.5 2893.5,1726.5C 2893.38,1725.41 2892.71,1724.75 2891.5,1724.5C 2890.29,1724.75 2889.62,1725.41 2889.5,1726.5C 2889.17,1726.5 2888.83,1726.5 2888.5,1726.5C 2888.38,1725.41 2887.71,1724.75 2886.5,1724.5C 2885.29,1724.75 2884.62,1725.41 2884.5,1726.5C 2884.17,1726.5 2883.83,1726.5 2883.5,1726.5C 2883.38,1725.41 2882.71,1724.75 2881.5,1724.5C 2880.29,1724.75 2879.62,1725.41 2879.5,1726.5C 2879.17,1726.5 2878.83,1726.5 2878.5,1726.5C 2877.5,1723.83 2876.5,1723.83 2875.5,1726.5C 2874.83,1726.5 2874.17,1726.5 2873.5,1726.5C 2873.38,1725.41 2872.71,1724.75 2871.5,1724.5C 2870.29,1724.75 2869.62,1725.41 2869.5,1726.5C 2869.17,1726.5 2868.83,1726.5 2868.5,1726.5C 2868.38,1725.41 2867.71,1724.75 2866.5,1724.5C 2865.29,1724.75 2864.62,1725.41 2864.5,1726.5C 2864.17,1726.5 2863.83,1726.5 2863.5,1726.5C 2862.82,1724.82 2861.48,1724.16 2859.5,1724.5C 2859.17,1724.5 2858.83,1724.5 2858.5,1724.5C 2857.5,1724.5 2856.5,1724.5 2855.5,1724.5C 2855.17,1724.5 2854.83,1724.5 2854.5,1724.5C 2853.17,1724.5 2851.83,1724.5 2850.5,1724.5C 2850.17,1724.5 2849.83,1724.5 2849.5,1724.5C 2848.5,1724.5 2847.5,1724.5 2846.5,1724.5C 2846.17,1724.5 2845.83,1724.5 2845.5,1724.5C 2843.5,1724.5 2841.5,1724.5 2839.5,1724.5C 2839.17,1724.5 2838.83,1724.5 2838.5,1724.5C 2837.5,1724.5 2836.5,1724.5 2835.5,1724.5C 2835.17,1724.5 2834.83,1724.5 2834.5,1724.5C 2833.17,1724.5 2831.83,1724.5 2830.5,1724.5C 2830.17,1724.5 2829.83,1724.5 2829.5,1724.5C 2828.5,1724.5 2827.5,1724.5 2826.5,1724.5C 2826.17,1724.5 2825.83,1724.5 2825.5,1724.5C 2824.83,1724.5 2824.17,1724.5 2823.5,1724.5C 2821.55,1724.23 2820.05,1724.89 2819,1726.5C 2817.33,1723.83 2815.67,1723.83 2814,1726.5C 2812,1723.83 2810,1723.83 2808,1726.5C 2806.67,1723.83 2805.33,1723.83 2804,1726.5C 2802.33,1723.83 2800.67,1723.83 2799,1726.5C 2797.33,1723.83 2795.67,1723.83 2794,1726.5C 2777.89,1725.17 2761.55,1724.51 2745,1724.5C 2728.45,1724.51 2712.11,1725.17 2696,1726.5C 2695.29,1725.03 2694.12,1724.36 2692.5,1724.5C 2691.17,1724.5 2689.83,1724.5 2688.5,1724.5C 2662.56,1725.55 2636.9,1723.38 2611.5,1718C 2596.81,1714.33 2582.15,1710.66 2567.5,1707C 2554.69,1700.76 2542.36,1693.76 2530.5,1686C 2524.95,1679.11 2518.78,1672.95 2512,1667.5C 2502.44,1653.04 2494.44,1637.71 2488,1621.5C 2481.68,1589.08 2479.68,1556.41 2482,1523.5C 2483.87,1512.39 2487.04,1501.72 2491.5,1491.5C 2495.51,1485.51 2500.01,1479.84 2505,1474.5C 2506,1472.5 2507,1470.5 2508,1468.5C 2519.76,1458.07 2532.59,1449.24 2546.5,1442C 2564.11,1436.43 2582.11,1432.76 2600.5,1431C 2952.17,1430.33 3303.83,1430.33 3655.5,1431C 3673.37,1432.51 3690.7,1436.17 3707.5,1442C 3758.11,1468.32 3779.61,1510.15 3772,1567.5C 3771.2,1588.66 3766.87,1608.99 3759,1628.5C 3754.79,1635.59 3751.12,1642.92 3748,1650.5C 3741.39,1656.99 3735.23,1663.99 3729.5,1671.5C 3722.71,1676.13 3716.37,1681.3 3710.5,1687C 3696.1,1694.2 3681.44,1700.86 3666.5,1707C 3643.71,1712.56 3620.71,1717.22 3597.5,1721C 3574.2,1723.41 3551.03,1725.24 3528,1726.5C 3526.33,1723.83 3524.67,1723.83 3523,1726.5C 3491.39,1724.51 3459.56,1723.85 3427.5,1724.5 Z M 2608.5,1504.5 C 2953.83,1504.33 3299.17,1504.5 3644.5,1505C 3657.53,1506.26 3670.2,1509.09 3682.5,1513.5C 3685.81,1516.73 3688.97,1520.06 3692,1523.5C 3694.55,1528.89 3696.05,1534.55 3696.5,1540.5C 3695.27,1553.11 3694.44,1565.78 3694,1578.5C 3692.61,1598.8 3683.45,1614.3 3666.5,1625C 3658.06,1629.22 3649.4,1632.88 3640.5,1636C 3631.92,1637.25 3623.59,1639.41 3615.5,1642.5C 3585.45,1647.22 3555.29,1650.22 3525,1651.5C 3244.37,1651.66 2963.54,1651.5 2682.5,1651C 2649.87,1650.17 2618.21,1644.51 2587.5,1634C 2572.59,1625.05 2563.42,1611.88 2560,1594.5C 2558.29,1579.51 2556.79,1564.51 2555.5,1549.5C 2553.95,1534.62 2558.95,1522.62 2570.5,1513.5C 2583,1509.21 2595.67,1506.21 2608.5,1504.5 Z"/></g>
<g><path style="opacity:1" fill="#090c0a" d="M 2688.5,1724.5 C 2689.83,1724.5 2691.17,1724.5 2692.5,1724.5C 2692.38,1725.59 2691.71,1726.25 2690.5,1726.5C 2689.29,1726.25 2688.62,1725.59 2688.5,1724.5 Z"/></g>
<g><path style="opacity:1" fill="#090c0a" d="M 2823.5,1724.5 C 2824.17,1724.5 2824.83,1724.5 2825.5,1724.5C 2824.83,1727.17 2824.17,1727.17 2823.5,1724.5 Z"/></g>
<g><path style="opacity:1" fill="#090c0a" d="M 2826.5,1724.5 C 2827.5,1724.5 2828.5,1724.5 2829.5,1724.5C 2828.5,1727.17 2827.5,1727.17 2826.5,1724.5 Z"/></g>
<g><path style="opacity:1" fill="#090c0a" d="M 2830.5,1724.5 C 2831.83,1724.5 2833.17,1724.5 2834.5,1724.5C 2834.38,1725.59 2833.71,1726.25 2832.5,1726.5C 2831.29,1726.25 2830.62,1725.59 2830.5,1724.5 Z"/></g>
<g><path style="opacity:1" fill="#090c0a" d="M 2835.5,1724.5 C 2836.5,1724.5 2837.5,1724.5 2838.5,1724.5C 2837.5,1727.17 2836.5,1727.17 2835.5,1724.5 Z"/></g>
<g><path style="opacity:1" fill="#090c0a" d="M 2839.5,1724.5 C 2841.5,1724.5 2843.5,1724.5 2845.5,1724.5C 2845.03,1725.69 2844.03,1726.36 2842.5,1726.5C 2840.97,1726.36 2839.97,1725.69 2839.5,1724.5 Z"/></g>
<g><path style="opacity:1" fill="#090c0a" d="M 2846.5,1724.5 C 2847.5,1724.5 2848.5,1724.5 2849.5,1724.5C 2848.5,1727.17 2847.5,1727.17 2846.5,1724.5 Z"/></g>
<g><path style="opacity:1" fill="#090c0a" d="M 2850.5,1724.5 C 2851.83,1724.5 2853.17,1724.5 2854.5,1724.5C 2854.38,1725.59 2853.71,1726.25 2852.5,1726.5C 2851.29,1726.25 2850.62,1725.59 2850.5,1724.5 Z"/></g>
<g><path style="opacity:1" fill="#090c0a" d="M 2855.5,1724.5 C 2856.5,1724.5 2857.5,1724.5 2858.5,1724.5C 2857.5,1727.17 2856.5,1727.17 2855.5,1724.5 Z"/></g>
<g><path style="opacity:1" fill="#090c0a" d="M 2859.5,1724.5 C 2861.48,1724.16 2862.82,1724.82 2863.5,1726.5C 2861.52,1726.84 2860.18,1726.18 2859.5,1724.5 Z"/></g>
<g><path style="opacity:1" fill="#090c0a" d="M 2868.5,1726.5 C 2867.17,1726.5 2865.83,1726.5 2864.5,1726.5C 2864.62,1725.41 2865.29,1724.75 2866.5,1724.5C 2867.71,1724.75 2868.38,1725.41 2868.5,1726.5 Z"/></g>
<g><path style="opacity:1" fill="#090c0a" d="M 2873.5,1726.5 C 2872.17,1726.5 2870.83,1726.5 2869.5,1726.5C 2869.62,1725.41 2870.29,1724.75 2871.5,1724.5C 2872.71,1724.75 2873.38,1725.41 2873.5,1726.5 Z"/></g>
<g><path style="opacity:1" fill="#090c0a" d="M 2878.5,1726.5 C 2877.5,1726.5 2876.5,1726.5 2875.5,1726.5C 2876.5,1723.83 2877.5,1723.83 2878.5,1726.5 Z"/></g>
<g><path style="opacity:1" fill="#090c0a" d="M 2883.5,1726.5 C 2882.17,1726.5 2880.83,1726.5 2879.5,1726.5C 2879.62,1725.41 2880.29,1724.75 2881.5,1724.5C 2882.71,1724.75 2883.38,1725.41 2883.5,1726.5 Z"/></g>
<g><path style="opacity:1" fill="#090c0a" d="M 2888.5,1726.5 C 2887.17,1726.5 2885.83,1726.5 2884.5,1726.5C 2884.62,1725.41 2885.29,1724.75 2886.5,1724.5C 2887.71,1724.75 2888.38,1725.41 2888.5,1726.5 Z"/></g>
<g><path style="opacity:1" fill="#090c0a" d="M 2893.5,1726.5 C 2892.17,1726.5 2890.83,1726.5 2889.5,1726.5C 2889.62,1725.41 2890.29,1724.75 2891.5,1724.5C 2892.71,1724.75 2893.38,1725.41 2893.5,1726.5 Z"/></g>
<g><path style="opacity:1" fill="#090c0a" d="M 2897.5,1726.5 C 2896.5,1726.5 2895.5,1726.5 2894.5,1726.5C 2895.5,1723.83 2896.5,1723.83 2897.5,1726.5 Z"/></g>
<g><path style="opacity:1" fill="#090c0a" d="M 2918.5,1726.5 C 2917.83,1726.5 2917.17,1726.5 2916.5,1726.5C 2917.17,1723.83 2917.83,1723.83 2918.5,1726.5 Z"/></g>
<g><path style="opacity:1" fill="#090c0a" d="M 2939.5,1726.5 C 2938.83,1726.5 2938.17,1726.5 2937.5,1726.5C 2938.17,1723.83 2938.83,1723.83 2939.5,1726.5 Z"/></g>
<g><path style="opacity:1" fill="#090c0a" d="M 2960.5,1726.5 C 2959.83,1726.5 2959.17,1726.5 2958.5,1726.5C 2959.17,1723.83 2959.83,1723.83 2960.5,1726.5 Z"/></g>
<g><path style="opacity:1" fill="#090c0a" d="M 3257.5,1726.5 C 3256.83,1726.5 3256.17,1726.5 3255.5,1726.5C 3256.17,1723.83 3256.83,1723.83 3257.5,1726.5 Z"/></g>
<g><path style="opacity:1" fill="#090c0a" d="M 3278.5,1726.5 C 3277.83,1726.5 3277.17,1726.5 3276.5,1726.5C 3277.17,1723.83 3277.83,1723.83 3278.5,1726.5 Z"/></g>
<g><path style="opacity:1" fill="#090c0a" d="M 3324.5,1726.5 C 3323.83,1726.5 3323.17,1726.5 3322.5,1726.5C 3323.17,1723.83 3323.83,1723.83 3324.5,1726.5 Z"/></g>
<g><path style="opacity:1" fill="#090c0a" d="M 3329.5,1726.5 C 3328.17,1726.5 3326.83,1726.5 3325.5,1726.5C 3325.62,1725.41 3326.29,1724.75 3327.5,1724.5C 3328.71,1724.75 3329.38,1725.41 3329.5,1726.5 Z"/></g>
<g><path style="opacity:1" fill="#090c0a" d="M 3334.5,1726.5 C 3333.17,1726.5 3331.83,1726.5 3330.5,1726.5C 3330.62,1725.41 3331.29,1724.75 3332.5,1724.5C 3333.71,1724.75 3334.38,1725.41 3334.5,1726.5 Z"/></g>
<g><path style="opacity:1" fill="#090c0a" d="M 3344.5,1726.5 C 3341.5,1726.5 3338.5,1726.5 3335.5,1726.5C 3336.51,1725.24 3338.01,1724.57 3340,1724.5C 3341.99,1724.57 3343.49,1725.24 3344.5,1726.5 Z"/></g>
<g><path style="opacity:1" fill="#090c0a" d="M 3349.5,1726.5 C 3348.17,1726.5 3346.83,1726.5 3345.5,1726.5C 3345.62,1725.41 3346.29,1724.75 3347.5,1724.5C 3348.71,1724.75 3349.38,1725.41 3349.5,1726.5 Z"/></g>
<g><path style="opacity:1" fill="#090c0a" d="M 3354.5,1726.5 C 3353.17,1726.5 3351.83,1726.5 3350.5,1726.5C 3350.62,1725.41 3351.29,1724.75 3352.5,1724.5C 3353.71,1724.75 3354.38,1725.41 3354.5,1726.5 Z"/></g>
<g><path style="opacity:1" fill="#090c0a" d="M 3358.5,1724.5 C 3358.18,1726.05 3357.18,1726.71 3355.5,1726.5C 3355.82,1724.95 3356.82,1724.29 3358.5,1724.5 Z"/></g>
<g><path style="opacity:1" fill="#090c0a" d="M 3359.5,1724.5 C 3360.83,1724.5 3362.17,1724.5 3363.5,1724.5C 3363.38,1725.59 3362.71,1726.25 3361.5,1726.5C 3360.29,1726.25 3359.62,1725.59 3359.5,1724.5 Z"/></g>
<g><path style="opacity:1" fill="#090c0a" d="M 3364.5,1724.5 C 3365.5,1724.5 3366.5,1724.5 3367.5,1724.5C 3366.5,1727.17 3365.5,1727.17 3364.5,1724.5 Z"/></g>
<g><path style="opacity:1" fill="#090c0a" d="M 3368.5,1724.5 C 3369.5,1724.5 3370.5,1724.5 3371.5,1724.5C 3370.5,1727.17 3369.5,1727.17 3368.5,1724.5 Z"/></g>
<g><path style="opacity:1" fill="#090c0a" d="M 3372.5,1724.5 C 3374.5,1724.5 3376.5,1724.5 3378.5,1724.5C 3378.03,1725.69 3377.03,1726.36 3375.5,1726.5C 3373.97,1726.36 3372.97,1725.69 3372.5,1724.5 Z"/></g>
<g><path style="opacity:1" fill="#090c0a" d="M 3379.5,1724.5 C 3380.5,1724.5 3381.5,1724.5 3382.5,1724.5C 3381.5,1727.17 3380.5,1727.17 3379.5,1724.5 Z"/></g>
<g><path style="opacity:1" fill="#090c0a" d="M 3384.5,1724.5 C 3385.5,1724.5 3386.5,1724.5 3387.5,1724.5C 3386.5,1727.17 3385.5,1727.17 3384.5,1724.5 Z"/></g>
<g><path style="opacity:1" fill="#090c0a" d="M 3388.5,1724.5 C 3389.5,1724.5 3390.5,1724.5 3391.5,1724.5C 3390.5,1727.17 3389.5,1727.17 3388.5,1724.5 Z"/></g>
<g><path style="opacity:1" fill="#090c0a" d="M 3425.5,1724.5 C 3426.17,1724.5 3426.83,1724.5 3427.5,1724.5C 3426.83,1727.17 3426.17,1727.17 3425.5,1724.5 Z"/></g>
</svg>
