<?xml version="1.0" encoding="utf-8"?>
<!-- Generator: Adobe Illustrator 24.1.0, SVG Export Plug-In . SVG Version: 6.00 Build 0)  -->
<svg version="1.1" id="Layer_1" xmlns="http://www.w3.org/2000/svg" xmlns:xlink="http://www.w3.org/1999/xlink" x="0px" y="0px"
	 viewBox="0 0 223.6332855 105.9957657" style="enable-background:new 0 0 223.6332855 105.9957657;" xml:space="preserve">
<style type="text/css">
	.st0{fill:#4A1A16;}
</style>
<g>
	<path class="st0" d="M220.0442963,85.9528046l0.0159912-0.779007l0.4940186,0.0040131
		c0.2630005-0.0040131,0.6199951,0.0259857,0.6259766,0.3669891c-0.0059814,0.3670044-0.1739807,0.4080048-0.5149841,0.4080048
		H220.0442963z M220.0602875,86.5207977h0.3370056l0.75,1.3700104h0.8250122l-0.8250122-1.4290009
		c0.4299927-0.026001,0.7820129-0.2570038,0.7820129-0.8590088c0-0.7399902-0.4980164-0.9769897-1.3500061-0.9769897
		l-1.2189941-0.0169983v3.2819977l0.6999817,0.0189972V86.5207977z M223.6332855,86.2597961
		c0-1.9299927-1.4419861-3.0349884-3.0619812-3.0349884c-1.631012,0-3.072998,1.1100006-3.072998,3.0349884
		c0,1.9200134,1.4419861,3.0460052,3.072998,3.0460052C222.1912994,89.3058014,223.6332855,88.1798096,223.6332855,86.2597961
		 M222.7703094,86.2597961c0,1.4020081-1.0190125,2.355011-2.1990051,2.355011v-0.0189972
		c-1.2109985,0-2.1900024-0.9340057-2.1900024-2.3360138c0-1.3969879,0.9790039-2.3259888,2.1900024-2.3259888
		C221.7462921,83.9338074,222.7703094,84.8628082,222.7703094,86.2597961"/>
</g>
<g>
	<path class="st0" d="M125.0614166,67.1698914c-6.102005-0.2589874-12.7779999,4.9220123-12.4720001,11.0820007
		c0.4539948,9.2890015,7.5569916,9.9170074,12.6269989,10.0450134c7.7619934-0.3870087,9.0849915-4.2770081,9.7389832-5.5980072
		c0.2099915-0.5980072-0.8989868-2.0460052-1.7649841-1.1069946c-8.4210052,8.875-13.3670044-0.3220062-13.3079987-3.9380035
		c0.0829926-3.3320007,1.2559967-8.1670074,5.1169891-7.7850037c0,0,2.6410065-1.1170044,4.7200012,5.5660095
		c2.0160065,2.368988,3.0059814-0.2110138,4.4509888-4.2670135
		C134.8003998,69.3708954,130.9994049,67.4118958,125.0614166,67.1698914"/>
	<path class="st0" d="M44.7020073,53.8007965c0.4059906,1.8360138,4.4009857,5.1460114,14.647995,3.1150055
		c1.8179932-0.3439941,3.2050018-0.4859924,6.3090096-0.4859924c0,25.4879913,0.1439972,40.0059967-0.0140076,40.0679932
		c0.3150024-0.1049957-6.5760078,10.8950043-1.2149963,9.348999c1.4380035-0.3999939,10.826004-6.897995,12.3190002-7.9369965
		c1.6660004-1.6719971-1.6670074-2.6500092-1.6670074-5.0830078c-0.0269928-11.8099976,0-17.151001,0.0370026-19.0439911
		c0.0509949-1.4199982,0.75-1.2850037,0.75-1.2850037c-0.0350037-0.003006,6.4570007-0.4900055,9.1679993,0.1869965
		c1.7519989,0.3930054,4.6520081,2.428009,4.1970062,2.3500061c2.3699951,0.375,1.2749939-1.9980011,0.4120026-5.6790009
		c-0.8380127-3.723999-1.9810028-6.6329956-5.576004-3.5659943c0.1009979,0.0739899-1.5379944,0.3289948-1.5749969,0.3289948
		c-0.3440094,0.1699982-8.451004,0.1849976-7.1910095-0.2550049c-0.1169891,0.0579987-0.6539917-1.9359894-0.6470032-5.5049896
		c0-4.230011,0.9840088-4.6340027,8.9960022-5.4060059c9.9440002,0.2559967,17.5270081,0.5099945,21.9860077,2.5370026
		c0.6049957,0.2679901,3.8269958,0.1839905,4.5249939-0.4640045c2.0970001-1.9810028,2.7880096-7.3289948-3.0370026-8.1029968
		c-7.9349976-2.0189972-19.8709869-0.4060059-28.375,0.9579926c2.5880127-0.3929901-8.7459869,2.3850098-20.1739998,1.4920044
		c-6.6369934-0.5110016-6.5189972-2.0059967-6.5370026-2.0240021C49.3160057,45.4998016,43.4589958,48.593811,44.7020073,53.8007965
		"/>
	<path class="st0" d="M135.0653229,69.1024933c-0.6180115,3.1420135,2.7409973,1.3540039,2.6419983,3.0620117
		c1.3859863,7.3430023-4.6690063,15.5769958,6.6879883,16.0579987c8.7919922,0.022995,9.7319946-6.2799988,5.8869934-4.7929993
		c-5.0960083,3.2169952-5.0440063-0.8850098-5.1239929-0.8930054c0.0140076-0.5269928-0.5410156-6.5630035-0.1459961-10.1710052
		c0.0180054-0.0179901,0.2409973-0.7859955,1.0149841-1.0549927c0.5670166-0.2169952,3.6110229-0.1470032,5.2860107-0.2039948
		c0.8670044-1.6430054,0.7349854-3.2510071,0.5759888-3.2570038c-1.9509888-0.2620087-5.1929932,0.1620026-6.7269897-0.25
		c-0.2890015-1.9680023-0.2390137-4.8419952-0.2390137-7.1340027c-0.17099-0.0699921-1.3509827-0.0480042-1.4679871-0.0919952
		C137.9102936,66.0774994,136.4662933,67.7805023,135.0653229,69.1024933"/>
	<path class="st0" d="M195.1824188,68.1815948c0,0.352005,0,1.2770081-0.1440125,1.6420135
		c0.5319824,0.3829956,1.1440125,0.522995,1.5769958,1.0309906c1.3389893,1.5460052,6.3179932,12.2190094,7.6650085,16.1159973
		c-0.0690002,0.1220093,0.1340027,0.4600067,0.0629883,0.5850067c-10.6820068,15.1629944-20.0489807,12.1790009-19.5149841,7.003006
		c0.3989868-0.8460083-0.8430176-2.4970093-4.1880188-1.4340057c-2.0039978,0.9169922-2.59198,2.8379974-2.2890015,3.9700012
		c2.9779968,10.7779999,19.3170166,6.2330017,29.2690125-6.0740051c3.1699829-3.8589935,8.5390015-11.3639984,11.2080078-19.0769958
		c0.4360046-1.3220062,1.8349915-2.0200043,1.8989868-2.1199951c0.1520081-0.5070038,0.0029907-1.4250031,0.1329956-1.9120026
		c-8.9349976-0.730011-11.0299988,0.1589966-11.0099792,0.269989c0.1219788,0.4760132-0.0220032,1.0040131,0.1399841,1.4990082
		c0.1140137,0.3820038,2.0240173,1.2879944,2.0859985,1.4459991c1.0610046,2.576004-2.5549927,7.9149933-3.4060059,9.1620026
		c0.6830139,1.0769958-2.9349976-3.2129974-3.9249878-9.428009c0.4949951-0.4099884,1.5469971-0.446991,1.7149963-1.0369873
		c0.5169983-2.0019989-0.9570007-2.4720001-5.6419983-2.2360077
		C198.8733978,67.6735992,196.54039,67.5776062,195.1824188,68.1815948"/>
	<path class="st0" d="M184.5740204,71.6493988h-0.5110168c0.105011-5.3959961-1.9509888-3.6379852-4.4599915-2.1729889
		c-1.7120056,0.9639893-2.9460144,1.6109924-4.4649963,2.6880035c0.1289978,0.2869873,0,0.9659882,0.0069885,1.3069916
		c0.6029968,0.3370056,1.4570007,0.4790039,1.8460083,1.052002c0.8739929,1.3650055,1.0579834,6.6519928,0.5010071,8.9060059
		c-0.3040161,1.197998-2.5660095,2.0069885-2.8780212,2.875c-0.1340027,0.3789978,0.1360168,1.1259918,0,1.5109863
		c3.5599976,0.8930054,6.980011,0.3240051,11.2690125,0.3330078c0.1049805-0.5930023,0.9039917,0.2089996,0.5289917-1.8439941
		c-0.1749878-0.9000092-1.980011-1.0990143-2.348999-2.0770111c-0.5339966-1.3209991-0.3469849-6.4079895-0.0230103-7.8659973
		c-0.2559814,1.2929993,1.6159973-5.2330017,5.7770081-1.326004l0.5159912,0.7950134
		c1.0820007,0.2769928,0.9420166,0.1309967,1.8450012-0.5200043c-0.2139893-3.1329956,5.5620117-8.1289978-1.197998-7.4609985
		C187.2660065,68.2224121,186.2809906,70.0054016,184.5740204,71.6493988"/>
	<path class="st0" d="M151.5149078,77.9200134c0,8.7419891,8.6239929,12.4279938,17.8789978,9.9519958
		c12.394989-3.8509979,6.1699829-21.7429962-7.257019-20.5189972
		C155.1768951,67.9470062,151.4539032,72.1150055,151.5149078,77.9200134 M167.286911,85
		c-7.8740234,3.7540131-11.8260193-13.8129883-6.8010254-14.9339905C167.0378876,68.5860138,171.4889069,82.9860077,167.286911,85"
		/>
	<path class="st0" d="M90.805603,71.1065979c-0.6519928,2.3650055,1.3059998,2.0940094,1.3059998,2.0940094
		c4.5960083-3.378006,7.5690002-1.480011,7.6119995-1.5740051c1.7990112,2.4960022,1.3200073,4.0650024,1.2890015,3.9279938
		c-11.7169952-0.4429932-11.9429932,5.7680054-11.9720001,6.5449982c-0.1899872,5.3820038,4.0390015,6.3800049,7.8380127,6.4160004
		c2.3809967,0.0120087,5.2789917-0.1759949,6.493988-1.1790009c1.9629974-1.6549988,1.9380035,0.1450043,3.4110107,0.5360107
		c9.1859894,2.3889923,9.0859985-3.980011,6.6749878-3.3390045c0,0.0119934-1.1749878,0.2429962-1.7799988-0.0859985
		c-0.9749908-0.5460052-1.5029907-3.7859955-2.1139984-5.2310028c-2.3820038-5.5139923-1.9929962-12.0149994-10.473999-11.951004
		C95.9976044,67.1226044,91.1206055,69.8305969,90.805603,71.1065979 M101.2816162,84.976593
		c-5.8720093,1.3280029-6.4480133-5.7709961-2.6160126-6.5309906
		C104.0266113,77.3556061,104.7276154,84.2436066,101.2816162,84.976593"/>
</g>
<g>
	<path class="st0" d="M40.3485069,5.6044931C29.0834923,3.4745038,14.6874971,1.5294964,4.6184969,18.8244953
		c-2.8989944,5.0019989-4.2509918,8.9160004-4.5869904,15.1950054c-0.598999,13.7899933,7.3159943,29.8560028,26.0670013,31.5739899
		c5.4319916,0.4720001,10.8739929,0.4400024,15.318985-1.5669861c7.0170135-3.2480011,7.3880005-5.3540039,7.3450012-5.4680023
		c-3.3759918-1.5340118-3.3929901-1.4490051-3.6309967-1.3910065c-1.496994,0.4690094-3.6819916,2.5200043-8.0329895,2.9230042
		c-8.9390106,0.8529968-14.1710052-1.6640015-19.5500031-7.3330078c-4.6580038-4.8819885-5.7089987-12.7739868-5.9280081-15.9789886
		C11.4974947,18.8535023,19.6054955,8.7924967,28.8115044,8.7424936c12.54599-0.3769989,18.6879883,11.603013,20.9379883,15.0370035
		c3.0020142,0.3529968,4.2520142-1.0919952,4.2520142-1.144989c-1.1760101-8.004014-6.9420013-19.154007-8.5010071-20.4330139
		c-0.2940063-0.118988-1.0690002-0.1649933-1.3119965,0C43.2364922,2.8125012,40.142498,5.5794992,40.3485069,5.6044931"/>
	<path class="st0" d="M177.7811127,14.2695017c0.1269836,0.253006,0,1.3540039,0.25,1.5080109
		c0.375,0.2319956,2.4489746,0.7269907,2.5639954,1.9759989c-0.0140076,15.9129925-0.0800171,22.5119915,0,23.5650005
		c-1.3890076,1.8179932-2.6870117,1.6679993-2.8330078,2.5619965c-0.1690063,0.8789978,0.5419922,1.9599915,0.7819824,1.951004
		c5.1190186,0.0650024,10.4210205,0.0690002,10.5630188-0.0550079c0.8909912-1.7899933,0.7449951-2.8639984-1.2470093-3.1579895
		c-0.6919861-0.0950012-0.3710022-1.2260132-0.6579895-1.6300049c-0.0679932-0.1080017-0.2250061-1.7220001-0.196991-3.3970032
		c0.0309753,0.3130035,0.8389893-1.5800018,2.0929871-1.7480011c1.6809998,0.2259979,4.875,9.0610046,6.2309875,9.8690033
		c1.8570251,0.2089996,6.2530212,0.1279907,7.3380127-0.0639954c1.3729858-3.5240021-1.4490051-1.3170013-4.2839966-7.0830078
		c-4.3649902-8.8859997-4.5360107-8.3339977-0.1180115-10.2709942c2.4120178-1.1459961,1.9840088-2.4600067,0.6199951-2.6399994
		c-12.019989-1.7640076-9.4979858,1.7189941-9.598999,1.4389954c0.3160095,0.9360046,3.8010254,0.7440033-1.3809814,5.0480022
		c-0.0450134-0.0319977-0.5820007,0.177002-0.5970154-0.1439953c-0.1059875-3.1419983-0.1059875-19.0700073-0.0979919-21.9150085
		C186.6551056,9.2515116,184.7430878,9.7025156,177.7811127,14.2695017"/>
	<path class="st0" d="M96.6204071,25.2119007c-1.6630096-0.0999908-1.553009-0.5189972-6.125-0.5619965
		c-1.7570038,0-5.8040009,1.477005-5.7640076,4.6000061c-0.0399933,1.6289978-0.0639954,2.4869995,0.2070007,3.1289959
		c1.3959961,3.4649963,5.154007,3.9409943,7.8110046,4.8540039c3.3739929,1.2169952,5.7949982,1.54599,5.6469879,3.223999
		c0.1140137-0.9369965,0.2740021,2.7189941-6.2759857,1.470993c-2.0900116-0.4100037-3.0990143-0.8389893-6.654007-3.6289978
		l-1.5160065,0.0149994c0.602005,2.5930023,1.1640015,3.8619995,3.9850006,8.3800049l1.4410095-0.1660004
		c2.0939941-2.7400055,2.3580017-1.178009,6.5619965-0.6630096c10.2400055,1.0820007,15.3240051-10.9669952,0.2969971-14.0489941
		c-3.197998-0.5079956-7.2140045-2.7649994-4.072998-3.9779968c3.5169983-1.3659973,8.8789978,2.3950043,8.3379974,2.1549988
		c4.6660004,2.3370037,3.1430054-0.177002,1.303009-3.1689911C98.5903931,21.6419086,98.7653961,25.3399067,96.6204071,25.2119007"
		/>
	<path class="st0" d="M140.8309174,24.8125019c-6.0990295-0.2619934-12.7840118,4.9070129-12.4880066,11.055006
		c0.4689941,9.2940063,7.572998,9.9369965,12.6349792,10.0540009c7.7770081-0.3789978,9.1210022-4.2599945,9.757019-5.5850067
		c0.1990051-0.5979919-0.8850098-2.0379944-1.7810059-1.1239929c-8.4110107,8.8999939-13.3460083-0.3289948-13.2799988-3.928009
		c0.0559998-3.324995,1.2430115-8.1579876,5.1009827-7.7869854c0,0,2.6420288-1.1139984,4.7160034,5.5649853
		c2.0090027,2.3830109,3.0020142-0.2149963,4.4530029-4.2539959
		C150.5799103,27.0005054,146.7699127,25.0525074,140.8309174,24.8125019"/>
	<path class="st0" d="M73.872406,45.8222961c5.8269958-0.2919922,9.7379913-3.7539978,10.3000031-4.7839966
		c0.4879913-0.8899994-0.404007-1.8899994-1.5020142-1.3800049c-6.2249908,3.8850098-9.8329926,3.6580048-12.5539856-1.8399963
		c1.2159882-0.8220062,11.6339874-4.0800018,12.7609863-4.9609985c0.776001-0.6210022-1.5709991-4.3480053-3.1779938-5.8090038
		c-1.7870026-1.6239929-3.8040009-2.4899902-7.772995-2.2669983C56.9484062,26.3302937,58.8653984,46.4902954,73.872406,45.8222961
		 M75.5194092,32.4032898c-0.3490143,0.526001-5.8500061,2.7310028-6.6220093,1.3860016
		c-0.7689972-1.298996-0.7689972-5.2249889,2.2620087-5.84799C73.4844055,27.5502949,75.5854034,30.2122974,75.5194092,32.4032898"
		/>
	<path class="st0" d="M118.1931,45.8302917c5.8359985-0.2999878,9.7579956-3.7449951,10.3139954-4.776001
		c0.4909973-0.9059906-0.401001-1.9059906-1.4850006-1.3809967c-6.2279968,3.8730011-9.8239899,3.6430054-12.5749969-1.8369904
		c1.223999-0.8400116,11.6360016-4.0850067,12.7610016-4.9730072c0.8079987-0.625-1.5420074-4.34799-3.1629944-5.8130016
		c-1.7990112-1.621994-3.803009-2.4919891-7.7910004-2.2689972C101.2841034,26.3302937,103.1970978,46.5072937,118.1931,45.8302917
		 M119.8621063,32.4032898c-0.3630066,0.5360107-5.8460083,2.7310028-6.6450043,1.3960114
		c-0.7480011-1.3090057-0.7709961-5.2349987,2.2850037-5.8579998
		C117.8401031,27.5603046,119.9080963,30.2122974,119.8621063,32.4032898"/>
	<path class="st0" d="M212.3810883,45.8517914c5.8410034-0.3089905,9.7529907-3.7619934,10.3179932-4.7839966
		c0.4790039-0.8970032-0.4019775-1.9140015-1.473999-1.3789978c-6.2590027,3.8760071-9.8370056,3.6569977-12.5870056-1.8289948
		c1.230011-0.852005,11.6400146-4.0980072,12.7410278-4.9960022c0.8119812-0.5980072-1.5220032-4.3370037-3.1570129-5.8000011
		c-1.776001-1.6199951-3.79599-2.4949951-7.7659912-2.2610016C195.483078,26.3497944,197.384079,46.5227966,212.3810883,45.8517914
		 M214.0301056,32.4227905c-0.3330078,0.5220032-5.8180237,2.7290039-6.6160278,1.3800049
		c-0.7579956-1.3029938-0.7579956-5.2249889,2.2680054-5.8410015
		C212.0260773,27.5717945,214.1161041,30.2328053,214.0301056,32.4227905"/>
	<path class="st0" d="M51.9452019,45.8225098c5.8299866-0.3170013,9.743988-3.7539978,10.3159943-4.7980042
		c0.4750061-0.8840027-0.4120026-1.8919983-1.4830017-1.3649902c-6.2339935,3.8819885-9.8309937,3.6469879-12.5780029-1.8410034
		c1.2259979-0.8379974,11.6330109-4.0800018,12.7620087-4.9710083c0.7899933-0.6259918-1.5460052-4.3379955-3.1560059-5.800993
		c-1.7949982-1.6230011-3.8139954-2.4880066-7.7850037-2.2669983C35.03619,26.3185139,36.9461937,46.4915009,51.9452019,45.8225098
		 M53.6092033,32.3945007c-0.352005,0.5440063-5.8440094,2.7290039-6.6340027,1.3960114
		c-0.7710114-1.3170013-0.7710114-5.225996,2.2740021-5.8489971C51.5741997,27.5505085,53.6721916,30.2105122,53.6092033,32.3945007
		"/>
	<path class="st0" d="M153.4092865,27.9411945c0,0-1.696991,2.9649963,1.007019,2.5640106
		c0.1829834-0.1950073,8.5270081-5.2030029,8.9459839,2.4339886c-5.5279846,0.4730072-11.9789734,0.9360046-11.9049988,7.0610046
		c0.0360107,3.1360016,0.9179993,5.6439972,8.5660095,6.0350037c7.2430115-0.7310028,6.4530029-3.1940002,8.9760132-1
		c5.7249756,2.3470001,8.2509766-0.3080139,8.2359924-2.1940002c0.0180054-1.4609985-2.6790161-0.2770081-3.6600037-1.3250122
		c-2.7390137-5.3099976-2.6040039-17.1589947-11.9039917-16.5069866
		C161.4823151,25.0251942,158.508316,24.3221912,153.4092865,27.9411945 M164.1463165,36.0741882
		c-0.0800171,0.056015,3.664978,4.3900146-0.2610168,6.2150116c-7.6730042,0.8629913-5.3769836-6.0830078-3.196991-6.2770081
		C162.8473053,35.8201904,161.7072906,35.9411926,164.1463165,36.0741882"/>
	<path class="st0" d="M31.5316124,24.9628925c-1.57901-0.0799866-3.3220062,0.4370117-5.381012,1.8190002
		c0.0140076-4.9229889,0.1500092-7.7149963-0.0169983-12.5259867h-1.0639954
		c-2.5039978,1.4599915-5.1179962,2.974-7.3399963,4.7259989c0.1059875,0.4799957-0.0910034,0.9149933,0,1.5749969
		c0.0659943,0.3849945,2.1899872,0.901001,2.2359924,1.6609955c-0.0399933-0.7599945,0.1300049,14.8950024-0.1949921,18.8489971
		c-0.2020111,1.8440094-1.7630005,1.9400024-2.3600006,2.6640015c0,0-0.1950073,2.1340027,0.5679932,2.1210022
		c3.2340088,0.0130005,6.4640045,0,9.701004,0c0.7149963-0.4450073,0.6069946-0.727005,0.6210022-1.8209991
		c-0.1870117-0.2850037-1.5149994-1.4349976-1.7590027-2.3809967c-0.5879974-2.4840088-0.7660065-7.5390015-0.4450073-9.5380096
		c0.1529999-0.9149914,1.0540009-1.7999859,1.5830078-2.1879864c0.2830048-0.20401,1.4819946-0.0429993,1.5549927-0.1070099
		c0.1490021-0.0419922,1.4470062,1.7539978,1.6640015,2.1970043c1.3410034,2.7899933,2.2960052,8.1029968,2.2279968,10.7050018
		c-0.2619934,11.2539978-5.6380005,12.272995-6.493988,13.4550018c0.0800018,0.3509979-0.0250092,0.8989868,0.1469879,1.0859985
		c0.2540131,0.219986,1.5320129-0.1110077,1.8420105-0.2350006c4.8829956-2.3950043,11.3130035-7.7850037,10.8759918-18.5749969
		c-0.0099945-0.3800049-0.04599-0.7610016-0.0240021-1.1430054C39.5876122,32.8029022,36.6986046,25.228899,31.5316124,24.9628925"
		/>
</g>
<g>
	<path class="st0" d="M69.1019135,0.0390942c0,0,1.2009888-0.1099854,1.2689972,0.0390015
		c0.5869904,1.1970062-2.0920105,4.102005-2.2330017,4.7360077c-0.8570099,1.5240021-1.9950104,1.5350037-1.7799988-0.8600004
		c-0.0550079-0.0850067-1.7389984-0.0079956-2.6350136-0.0079956c0.076004,0.1399992-0.2079926,10.7099915,0.3050117,11.3779907
		c1.7119904,1.5160074,0.0709991,2.076005,0.0709991,2.076005c-1.7989998,0.2619934-5.993,0.1990051-6.6540108-0.2149963
		c-0.4850006-1.6220102,0.9060059-1.4340067,1.0550079-3.0019999c0.2409973-2.6119995,0.0780029-7.3079987,0.0780029-10.3980103
		c-3.4940033-0.4299927-4.5169983,1.4790037-5.0720062,2.1600034c-1.276001,0.0590057-3.4299927,0.5700073,1.6829987-5.5629883
		c0.1950073,0.0069885,0.7380066-0.3990173,1.1609955,0.4749908c5.881012,0.0410004,8.8290138,0.0410004,11.0660133-0.0390015
		C67.7958984,0.8061077,67.8919067,0.497102,69.1019135,0.0390942"/>
	<path class="st0" d="M68.8509064,4.226594c-0.6070099,1.1850128,0.8379974,1.0590057,0.9119873,1.6940002
		c0.1200104,1.1980133-0.1779938,8.5230103-0.0879974,9.0870056c-1.7330017,1.0390024-0.9179993,2.1320047-0.9179993,2.1320047
		c1.7669983-0.0110016,5.5180054,0.1860046,5.6410065,0c0.0739899-1.2570047-0.2120056-0.8269958-0.6159973-1.7790079
		c-0.6400146-1.522995-0.4360046-4.3119965-0.3600006-4.7859955c2.2589874-4.1759949,4.9700012,9.0330057,0.2059937,11.5919962
		c-0.5200043,0.2590027-1.5070038,1.4930115,0.8760071,0.9580078c9.1199951-4.8899994,5.8369904-19.1419983-1.2370148-15.4140024
		C73.2769012-0.0433949,73.7019043,0.8186046,68.8509064,4.226594"/>
	<path class="st0" d="M86.763504,17.1846943c3.6729889-0.5540009,4.5219879-1.9059916,4.5219879-1.9059916
		c0.9100037-1.2430115-0.071991-1.6070099-0.7910004-1.105011c-4.095993,2.7360086-5.5899963-0.6559906-5.7070007-0.9589996
		c0.4450073-0.1389923,2.6670074-0.8089905,6.3300018-2.3990021c-0.1049957-0.3899994-0.8059998-3.5970001-3.9400024-3.9759979
		C78.6174927,5.8276987,77.85849,17.6396961,86.763504,17.1846943 M87.1795044,10.5526896
		c-1.0380096,0.3010101-1.7290039,0.681015-2.8240051,0.6170044c-0.57901-0.4299927-0.1750031-2.4749908,0.8240051-2.5859985
		C86.1754913,8.5047007,86.8515015,9.018693,87.1795044,10.5526896"/>
</g>
</svg>
